<?xml version="1.0" encoding="UTF-8"?>
<svg xmlns="http://www.w3.org/2000/svg" version="1.1" width="1919" height="797" style="background: transparent;">
<path d="M0 0 C633.27 0 1266.54 0 1919 0 C1919 263.01 1919 526.02 1919 797 C1285.73 797 652.46 797 0 797 C0 533.99 0 270.98 0 0 Z " fill="#F4F6F9" transform="translate(0,0)"/>
<path d="M0 0 C633.27 0 1266.54 0 1919 0 C1919 80 1919 80 1913 89 C1911.35 89.66 1909.7 90.32 1908 91 C1908 91.66 1908 92.32 1908 93 C1904.31925748 94.68416343 1901.45615473 95.25022909 1897.41896154 95.251233 C1896.29795792 95.25636122 1895.1769543 95.26148943 1894.02198087 95.26677304 C1892.79211866 95.26222783 1891.56225644 95.25768261 1890.29512566 95.25299966 C1888.98003915 95.25605276 1887.66495263 95.25910585 1886.31001501 95.26225147 C1882.63873169 95.27048493 1878.96755133 95.26619421 1875.29626797 95.25995973 C1871.29524339 95.25536576 1867.2942365 95.26236354 1863.29321542 95.26789337 C1856.24687296 95.27601592 1849.20055998 95.27664597 1842.15421452 95.27248149 C1831.60551665 95.26628121 1821.05684598 95.27154642 1810.50815008 95.2790789 C1792.53263529 95.29156975 1774.55713012 95.29448769 1756.58161163 95.29224396 C1738.35696669 95.28999776 1720.13232992 95.29205377 1701.90768623 95.29938889 C1700.75799819 95.29984819 1699.60831015 95.3003075 1698.42378308 95.30078072 C1693.74152943 95.30266393 1689.0592758 95.30457529 1684.37702218 95.3065231 C1635.48911481 95.32683069 1586.60121201 95.33293576 1537.71330091 95.33410732 C1532.44827212 95.33423682 1527.18324334 95.33437269 1521.91821456 95.33451414 C1520.61174861 95.33454815 1519.30528266 95.33458216 1517.95922683 95.3346172 C1489.03080458 95.3354335 1460.10238321 95.33981134 1431.17396143 95.34482583 C1419.26889655 95.34688249 1407.36383165 95.34886253 1395.45876676 95.35085833 C1393.48576321 95.3511901 1393.48576321 95.3511901 1391.47290101 95.35152857 C1360.49085445 95.35672749 1329.50880782 95.36119307 1298.52676105 95.36489296 C1297.51414035 95.36501407 1297.51414035 95.36501407 1296.48106265 95.36513763 C1253.4565707 95.37026458 1210.43207929 95.37206255 1167.40758705 95.37153696 C1165.29163296 95.37151145 1163.17567887 95.37148753 1161.05972478 95.37146414 C1146.19394733 95.37129945 1131.32816989 95.37109404 1116.46239244 95.37087838 C1112.19996446 95.37081684 1107.93753647 95.37075671 1103.67510849 95.37069675 C1100.11968507 95.37064656 1096.56426165 95.37059498 1093.00883824 95.37054053 C1025.85116567 95.36951761 958.69349792 95.3723548 891.53582764 95.39123535 C890.8287412 95.39143407 890.12165477 95.39163279 889.39314148 95.39183752 C867.30042428 95.39806022 845.20770725 95.40479321 823.11499023 95.41162109 C800.44652149 95.41862381 777.77805273 95.42556468 755.10958385 95.43214989 C754.06264904 95.43245447 754.06264904 95.43245447 752.99456403 95.4327652 C709.29091561 95.44546135 665.58726855 95.45330682 621.88361835 95.45586586 C621.20874009 95.45590592 620.53386182 95.45594597 619.8385327 95.45598724 C589.53627075 95.45777707 559.23400889 95.4583501 528.93174689 95.45776723 C518.33354799 95.45757426 507.73534908 95.45747017 497.13715017 95.45740977 C494.50047536 95.45739395 491.86380056 95.45737354 489.22712575 95.45734853 C447.17087908 95.45699552 405.11464585 95.46840645 363.05840303 95.48565616 C320.7133652 95.50293606 278.36834601 95.50735571 236.02330613 95.49413352 C230.17770977 95.4923088 224.33211338 95.49062227 218.48651695 95.48901749 C216.76759958 95.48853722 216.76759958 95.48853722 215.01395661 95.48804726 C196.83609683 95.483333 178.6582692 95.49207539 160.48041547 95.50635986 C142.62538125 95.52011108 124.77039474 95.51968882 106.9153616 95.50397559 C96.43504592 95.49518147 85.95487036 95.49743014 75.47456614 95.51570916 C68.52432252 95.52674673 61.57418405 95.52341786 54.62394863 95.50814359 C50.67749291 95.49988006 46.73131399 95.49794768 42.78487462 95.51364497 C38.55000109 95.53035247 34.31579302 95.51630326 30.08092183 95.49909532 C28.85823184 95.50889456 27.63554184 95.5186938 26.37580064 95.52878998 C19.04316682 95.46625742 13.08087875 94.8945427 7.52057977 89.58813123 C-12.90128316 66.21651272 0 24.51103855 0 0 Z " fill="#6A5ACD" transform="translate(0,0)"/>
<path d="M0 0 C164.34 0 328.68 0 498 0 C498 18.48 498 36.96 498 56 C333.66 56 169.32 56 0 56 C0 37.52 0 19.04 0 0 Z " fill="#FEFEFE" transform="translate(711,459)"/>
<path d="M0 0 C164.34 0 328.68 0 498 0 C498 18.48 498 36.96 498 56 C333.66 56 169.32 56 0 56 C0 37.52 0 19.04 0 0 Z " fill="#FEFEFE" transform="translate(711,402)"/>
<path d="M0 0 C164.34 0 328.68 0 498 0 C498 18.48 498 36.96 498 56 C333.66 56 169.32 56 0 56 C0 37.52 0 19.04 0 0 Z " fill="#FEFEFE" transform="translate(711,345)"/>
<path d="M0 0 C164.34 0 328.68 0 498 0 C498 18.48 498 36.96 498 56 C333.66 56 169.32 56 0 56 C0 37.52 0 19.04 0 0 Z " fill="#FEFEFE" transform="translate(711,231)"/>
<path d="M0 0 C164.34 0 328.68 0 498 0 C498 18.48 498 36.96 498 56 C333.66 56 169.32 56 0 56 C0 37.52 0 19.04 0 0 Z " fill="#FEFEFE" transform="translate(711,174)"/>
<path d="M0 0 C0.8087267 -0.00495952 1.61745339 -0.00991903 2.45068696 -0.01502883 C5.17189159 -0.02802504 7.89260875 -0.01958755 10.6138258 -0.01129913 C12.57997286 -0.01618614 14.54611705 -0.02237505 16.51225632 -0.02975702 C21.92410833 -0.04620397 27.33581511 -0.04382893 32.74768341 -0.03838205 C38.58081385 -0.03571769 44.41390507 -0.05023251 50.24701977 -0.06247711 C61.67850903 -0.0835588 73.1099476 -0.08807038 84.54145399 -0.08628923 C93.83141456 -0.08498292 103.12135929 -0.08877902 112.41131687 -0.09621429 C113.74551897 -0.09726463 115.07972107 -0.09831224 116.41392317 -0.09935716 C117.07620719 -0.0998765 117.7384912 -0.10039585 118.42084443 -0.10093093 C119.41607982 -0.10171114 119.41607982 -0.10171114 120.43142098 -0.10250711 C121.09601444 -0.10303111 121.76060791 -0.1035551 122.44534057 -0.10409497 C141.14123121 -0.11868115 159.83711618 -0.12695952 178.53301239 -0.12234497 C179.23800491 -0.12217302 179.94299742 -0.12200106 180.66935335 -0.1218239 C184.24260953 -0.12093499 187.8158657 -0.11999018 191.38912187 -0.11902589 C192.09879281 -0.11883485 192.80846375 -0.11864382 193.53963988 -0.118447 C194.97476776 -0.11805991 196.40989564 -0.11766958 197.84502353 -0.11727602 C220.17418384 -0.11130638 242.5032405 -0.12674148 264.83237743 -0.15888214 C289.91477956 -0.19495517 314.99711597 -0.21429225 340.07954568 -0.20934343 C353.36178255 -0.20700922 366.64393382 -0.21237195 379.92615223 -0.23723602 C391.234208 -0.25822379 402.54210471 -0.2618662 413.85016695 -0.24293643 C419.62128371 -0.23376293 425.39210368 -0.2326852 431.16319752 -0.25329208 C436.44532774 -0.27194462 441.72691693 -0.2675626 447.00902619 -0.24474627 C448.92085106 -0.24054604 450.83271695 -0.24480805 452.74449853 -0.25834221 C455.34289356 -0.2754857 457.93939605 -0.26181752 460.53771973 -0.24050903 C461.28054716 -0.25278656 462.02337458 -0.26506408 462.78871194 -0.27771366 C468.43412411 -0.18095413 472.72192183 1.60044852 476.95762157 5.38311005 C479.95762157 10.38311005 479.95762157 10.38311005 479.95762157 42.38311005 C315.61762157 42.38311005 151.27762157 42.38311005 -18.04237843 42.38311005 C-18.04237843 10.38311005 -18.04237843 10.38311005 -13.04237843 3.38311005 C-8.97385436 0.01261302 -5.08854279 -0.04378241 0 0 Z " fill="#6A5ACD" transform="translate(729.0423784255981,130.61688995361328)"/>
<path d="M0 0 C5.23724692 2.96387807 8.8638854 7.84165621 10.75 13.5 C11.48188105 20.25490217 10.99389476 26.00997547 6.75 31.5 C0.98589731 36.82338659 -3.77424678 38.89517218 -11.62109375 38.76953125 C-16.79158687 38.23942126 -20.51658488 36.37692225 -24.04296875 32.55859375 C-28.85158968 26.35650073 -30.05024766 21.3053141 -29.25 13.5 C-27.40431724 6.81086948 -23.09305037 2.96743646 -17.25 -0.5 C-11.59165621 -2.3861146 -5.51345061 -2.41147069 0 0 Z " fill="#877AD6" transform="translate(1889.25,26.5)"/>
<path d="M0 0 C2.4377963 -0.05397335 4.87439685 -0.09365616 7.3125 -0.125 C8.00279297 -0.14175781 8.69308594 -0.15851562 9.40429688 -0.17578125 C13.17135396 -0.21217794 14.78431704 -0.14378864 18 2 C18.33 1.34 18.66 0.68 19 0 C24.45860738 0 29.61526763 0.02095775 35 1 C34.6875 3.375 34.6875 3.375 34 6 C33.01 6.66 32.02 7.32 31 8 C32.32 8.33 33.64 8.66 35 9 C35 9.66 35 10.32 35 11 C32.36 11 29.72 11 27 11 C26.67 10.34 26.34 9.68 26 9 C25.34 9.66 24.68 10.32 24 11 C20.7297891 11.47515885 17.42584408 11.37037049 14.125 11.375 C12.75794922 11.41173828 12.75794922 11.41173828 11.36328125 11.44921875 C4.79365177 11.4780751 4.79365177 11.4780751 1.3671875 9.4140625 C-0.47098004 6.16838382 -0.28193049 3.66509632 0 0 Z " fill="#E3EAE9" transform="translate(962,539)"/>
<path d="M0 0 C2.4377963 -0.05397335 4.87439685 -0.09365616 7.3125 -0.125 C8.00279297 -0.14175781 8.69308594 -0.15851563 9.40429688 -0.17578125 C13.17135396 -0.21217794 14.78431704 -0.14378864 18 2 C18.33 1.34 18.66 0.68 19 0 C20.98 0 22.96 0 25 0 C25 0.66 25 1.32 25 2 C23.68 2 22.36 2 21 2 C21 2.66 21 3.32 21 4 C22.32 4.33 23.64 4.66 25 5 C25.625 6.875 25.625 6.875 26 9 C22.71800948 12.28199052 18.58374694 11.3687465 14.125 11.375 C12.75794922 11.41173828 12.75794922 11.41173828 11.36328125 11.44921875 C4.79365177 11.4780751 4.79365177 11.4780751 1.3671875 9.4140625 C-0.47098004 6.16838382 -0.28193049 3.66509632 0 0 Z " fill="#E3EAE9" transform="translate(962,368)"/>
<path d="M0 0 C0.99 0.99 1.98 1.98 3 3 C2.566875 3.8353125 2.566875 3.8353125 2.125 4.6875 C0.96538773 7.07114743 -0.01553616 9.53884039 -1 12 C2.63 15.63 6.26 19.26 10 23 C8.02 25.97 8.02 25.97 6 29 C2.08245748 27.39017849 -0.70514621 24.73165159 -3.6875 21.8125 C-4.18572266 21.35552734 -4.68394531 20.89855469 -5.19726562 20.42773438 C-7.84955465 17.83302557 -9.0108957 15.96184449 -10.03515625 12.375 C-10 9 -10 9 -8.671875 6.85546875 C-8.03765625 6.30503906 -7.4034375 5.75460938 -6.75 5.1875 C-6.12609375 4.62417969 -5.5021875 4.06085937 -4.859375 3.48046875 C-3 2 -3 2 0 0 Z " fill="#7C6651" transform="translate(30,27)"/>
<path d="M0 0 C5.61 0 11.22 0 17 0 C17.92282814 10.26646303 17.92282814 10.26646303 15.74609375 14.35546875 C11.57646085 18.72322676 7.43174662 19.57602493 1.5 19.9375 C-4.00844946 19.70637625 -6.98969492 18.96104548 -10.9375 15.0625 C-14 11.37579618 -14 11.37579618 -14 10 C-10.9375 9.5625 -10.9375 9.5625 -7 10 C-4.33150153 12.05546504 -2.16132464 14.42480469 0 17 C4.98593524 14.66615797 8.24559546 11.90397336 10.3125 6.6875 C10.539375 5.800625 10.76625 4.91375 11 4 C9.9275 4.0825 8.855 4.165 7.75 4.25 C4 4 4 4 0 0 Z " fill="#B5B3BA" transform="translate(34,40)"/>
<path d="M0 0 C2.47923801 -0.02685095 4.9581884 -0.04676547 7.4375 -0.0625 C8.14455078 -0.07087891 8.85160156 -0.07925781 9.58007812 -0.08789062 C11.38693559 -0.09653588 13.19387603 -0.05220011 15 0 C16 1 16 1 16.25 3.4375 C16.1675 4.283125 16.085 5.12875 16 6 C15.01 6.66 14.02 7.32 13 8 C14.32 8.33 15.64 8.66 17 9 C17 9.66 17 10.32 17 11 C6.28021884 11.61548983 6.28021884 11.61548983 1.75 9.4375 C-0.57749618 6.19563033 -0.12760269 3.90555365 0 0 Z " fill="#E9F0F0" transform="translate(1095,368)"/>
<path d="M0 0 C0 1.32 0 2.64 0 4 C-2.97 4 -5.94 4 -9 4 C-9.20970559 8.14093698 -9.20970559 8.14093698 -8 12 C-5.97536745 12.65213292 -5.97536745 12.65213292 -4 13 C-4 12.01 -4 11.02 -4 10 C-4.99 10 -5.98 10 -7 10 C-7 9.01 -7 8.02 -7 7 C-4.69 7 -2.38 7 0 7 C0 9.64 0 12.28 0 15 C-3.21804148 16.60902074 -6.51947705 16.59842983 -10 16 C-13.2769716 13.29649843 -13.90134941 11.62478708 -14.5625 7.4375 C-14 4 -14 4 -12.0625 1.5625 C-7.94900079 -0.53622409 -4.52819552 -0.35515259 0 0 Z " fill="#F1EFFA" transform="translate(161,27)"/>
<path d="M0 0 C1.32 0 2.64 0 4 0 C4 5.61 4 11.22 4 17 C-2.8359375 17.1953125 -2.8359375 17.1953125 -5 17 C-7 15 -7 15 -7.25 11.5 C-7 8 -7 8 -5 6 C-2.375 5.875 -2.375 5.875 0 6 C0 4.02 0 2.04 0 0 Z " fill="#F3F2FB" transform="translate(190,26)"/>
<path d="M0 0 C0 0.66 0 1.32 0 2 C0.556875 1.484375 1.11375 0.96875 1.6875 0.4375 C4 -1 4 -1 6.75 -0.6875 C7.86375 -0.3471875 7.86375 -0.3471875 9 0 C9.33 2.97 9.66 5.94 10 9 C4.25 10.125 4.25 10.125 2 9 C1.375 6.4375 1.375 6.4375 1 4 C0.87625 4.61875 0.7525 5.2375 0.625 5.875 C0 8 0 8 -2 10 C-4.625 10.125 -4.625 10.125 -7 10 C-7 9.34 -7 8.68 -7 8 C-5.68 7.34 -4.36 6.68 -3 6 C-4.32 5.67 -5.64 5.34 -7 5 C-7 3.35 -7 1.7 -7 0 C-4.3333581 -1.33332095 -2.83319697 -0.67102033 0 0 Z " fill="#70747F" transform="translate(781,426)"/>
<path d="M0 0 C0 0.66 0 1.32 0 2 C0.556875 1.484375 1.11375 0.96875 1.6875 0.4375 C4 -1 4 -1 6.75 -0.6875 C7.86375 -0.3471875 7.86375 -0.3471875 9 0 C9.33 2.97 9.66 5.94 10 9 C4.25 10.125 4.25 10.125 2 9 C1.375 6.4375 1.375 6.4375 1 4 C0.87625 4.61875 0.7525 5.2375 0.625 5.875 C0 8 0 8 -2 10 C-4.625 10.125 -4.625 10.125 -7 10 C-7 9.34 -7 8.68 -7 8 C-5.68 7.34 -4.36 6.68 -3 6 C-4.32 5.67 -5.64 5.34 -7 5 C-7 3.35 -7 1.7 -7 0 C-4.3333581 -1.33332095 -2.83319697 -0.67102033 0 0 Z " fill="#70747F" transform="translate(781,369)"/>
<path d="M0 0 C2.64590014 -0.02684679 5.29153096 -0.04676357 7.9375 -0.0625 C8.69224609 -0.07087891 9.44699219 -0.07925781 10.22460938 -0.08789062 C12.14994313 -0.09652441 14.07535581 -0.05224333 16 0 C17 1 17 1 17.09765625 3.28515625 C17.08605469 4.20167969 17.07445312 5.11820313 17.0625 6.0625 C17.05347656 6.98160156 17.04445312 7.90070312 17.03515625 8.84765625 C17.02355469 9.55792969 17.01195312 10.26820312 17 11 C15.68 11 14.36 11 13 11 C13 8.36 13 5.72 13 3 C12.01 3.495 12.01 3.495 11 4 C10.59270772 6.32156597 10.25561323 8.6568787 10 11 C8.68 11 7.36 11 6 11 C6 8.36 6 5.72 6 3 C5.01 3.495 5.01 3.495 4 4 C3.59270772 6.32156597 3.25561323 8.6568787 3 11 C2.01 11 1.02 11 0 11 C0 7.37 0 3.74 0 0 Z " fill="#EEECF9" transform="translate(122,32)"/>
<path d="M0 0 C4.08366335 1.66518311 7.06037785 4.54692877 10.25 7.5 C10.80429687 7.99886719 11.35859375 8.49773438 11.9296875 9.01171875 C13.3285008 10.2968354 14.66944254 11.64433768 16 13 C16 13.66 16 14.32 16 15 C7.96498906 15.78774617 7.96498906 15.78774617 3.9375 12.5 C3.298125 11.675 2.65875 10.85 2 10 C-0.49361571 11.20381448 -2.68143083 12.45428722 -5 14 C-4.690625 13.401875 -4.38125 12.80375 -4.0625 12.1875 C-2.25933918 8.7208472 -2.25933918 8.7208472 -2.625 5 C-2.74875 4.34 -2.8725 3.68 -3 3 C-1.5625 1.25 -1.5625 1.25 0 0 Z " fill="#685239" transform="translate(34,23)"/>
<path d="M0 0 C2.46800047 1.15173355 4.04783565 2.04783565 6 4 C6.45136876 7.98709073 6.3357464 10.34249664 4.5 13.9375 C1.45523082 16.44943458 -0.23985116 16.67086737 -4.09375 16.43359375 C-6.9914082 15.77449527 -8.31860104 14.38198187 -10 12 C-10 11.34 -10 10.68 -10 10 C-9.43410156 9.86722656 -8.86820313 9.73445313 -8.28515625 9.59765625 C-7.18494141 9.33275391 -7.18494141 9.33275391 -6.0625 9.0625 C-5.33160156 8.88847656 -4.60070313 8.71445312 -3.84765625 8.53515625 C-2.00030102 8.16112431 -2.00030102 8.16112431 -1 7 C-0.63239269 4.67182036 -0.29758419 2.3381615 0 0 Z " fill="#8C80D8" transform="translate(1882,37)"/>
<path d="M0 0 C0.99 0 1.98 0 3 0 C3 5.61 3 11.22 3 17 C-3.8359375 17.1953125 -3.8359375 17.1953125 -6 17 C-8 15 -8 15 -8.25 11.5 C-8 8 -8 8 -6 6 C-3.375 5.875 -3.375 5.875 -1 6 C-0.67 4.02 -0.34 2.04 0 0 Z " fill="#F9F8FD" transform="translate(275,26)"/>
<path d="M0 0 C2.18785263 0.98076152 3.75512761 1.70848526 5.3125 3.5625 C7.64294725 5.54769581 9.17581666 5.30483831 12.1875 5.1875 C13.08855469 5.16042969 13.98960938 5.13335937 14.91796875 5.10546875 C15.60503906 5.07066406 16.29210937 5.03585938 17 5 C17 5.66 17 6.32 17 7 C11.39 7 5.78 7 0 7 C0 7.66 0 8.32 0 9 C3.53411321 11.12046792 6.94393835 11.53199289 11 12 C11 13.65 11 15.3 11 17 C10.67 16.34 10.34 15.68 10 15 C9.030625 15.350625 8.06125 15.70125 7.0625 16.0625 C5.15625 16.3671875 5.15625 16.3671875 3 16 C-0.44760071 13.39247921 -3.33593775 10.40105906 -6 7 C-6 6.34 -6 5.68 -6 5 C-4.04072937 3.2856382 -2.04119788 1.61594832 0 0 Z " fill="#6857A7" transform="translate(34,32)"/>
<path d="M0 0 C2.01822917 0.06510417 4.03645833 0.13020833 6.0546875 0.1953125 C6.0546875 1.5153125 6.0546875 2.8353125 6.0546875 4.1953125 C3.0846875 3.7003125 3.0846875 3.7003125 0.0546875 3.1953125 C2.31209373 5.53056032 4.3352636 7.38236323 7.0546875 9.1953125 C7.4296875 11.6953125 7.4296875 11.6953125 7.0546875 14.1953125 C3.96580228 16.25456931 3.34532823 16.4343499 -0.1328125 16.3203125 C-1.3909375 16.2790625 -2.6490625 16.2378125 -3.9453125 16.1953125 C-3.9453125 14.5453125 -3.9453125 12.8953125 -3.9453125 11.1953125 C-1.9653125 11.8553125 0.0146875 12.5153125 2.0546875 13.1953125 C2.0546875 12.2053125 2.0546875 11.2153125 2.0546875 10.1953125 C1.2503125 9.8859375 0.4459375 9.5765625 -0.3828125 9.2578125 C-2.9453125 8.1953125 -2.9453125 8.1953125 -3.9453125 7.1953125 C-4.1328125 4.7578125 -4.1328125 4.7578125 -3.9453125 2.1953125 C-1.9453125 0.1953125 -1.9453125 0.1953125 0 0 Z " fill="#F1EFFA" transform="translate(69.9453125,26.8046875)"/>
<path d="M0 0 C3.5625 0.3125 3.5625 0.3125 5.5 1.5 C6.94968434 3.97299093 6.98567323 5.49134512 6.5625 8.3125 C5.5 10.125 5.5 10.125 3.5625 11.3125 C0 11.625 0 11.625 -3.4375 11.3125 C-5.4375 9.3125 -5.4375 9.3125 -5.6875 5.8125 C-5.34943772 1.07962813 -4.72246521 0.42931502 0 0 Z " fill="#F1F0FA" transform="translate(168.4375,31.6875)"/>
<path d="M0 0 C1.48693359 0.00386719 1.48693359 0.00386719 3.00390625 0.0078125 C3.99261719 0.00523437 4.98132813 0.00265625 6 0 C8.56640625 0.1328125 8.56640625 0.1328125 10.56640625 1.1328125 C10.56640625 3.4428125 10.56640625 5.7528125 10.56640625 8.1328125 C8.44168049 8.18667879 6.31656973 8.22554321 4.19140625 8.2578125 C2.41636719 8.29261719 2.41636719 8.29261719 0.60546875 8.328125 C-2.43359375 8.1328125 -2.43359375 8.1328125 -4.43359375 6.1328125 C-3.71038404 0.20249287 -3.71038404 0.20249287 0 0 Z " fill="#D6DEE2" transform="translate(831.43359375,256.8671875)"/>
<path d="M0 0 C1.98 0 3.96 0 6 0 C6.66 1.65 7.32 3.3 8 5 C8 3.35 8 1.7 8 0 C8.99 0 9.98 0 11 0 C11 2.64 11 5.28 11 8 C11.66 7.67 12.32 7.34 13 7 C13.40729228 4.67843403 13.74438677 2.3431213 14 0 C14.66 0 15.32 0 16 0 C16.09765625 6.15234375 16.09765625 6.15234375 16 8 C15 9 15 9 12.5625 9.125 C10 9 10 9 8 8 C7.01 8.495 7.01 8.495 6 9 C4.00039988 9.039992 1.99952758 9.04346799 0 9 C0 6.03 0 3.06 0 0 Z " fill="#C1BBEA" transform="translate(981,148)"/>
<path d="M0 0 C0.99 0 1.98 0 3 0 C3 2.31 3 4.62 3 7 C3.94875 6.79375 4.8975 6.5875 5.875 6.375 C7.421875 6.189375 7.421875 6.189375 9 6 C11 8 11 8 11.1953125 10.1640625 C11.17210938 10.97617187 11.14890625 11.78828125 11.125 12.625 C11.10695313 13.44226562 11.08890625 14.25953125 11.0703125 15.1015625 C11.03550781 16.04128906 11.03550781 16.04128906 11 17 C9.68 17 8.36 17 7 17 C6.67 14.69 6.34 12.38 6 10 C5.34 10 4.68 10 4 10 C3.67 12.31 3.34 14.62 3 17 C2.01 17 1.02 17 0 17 C0 11.39 0 5.78 0 0 Z " fill="#FAFAFD" transform="translate(79,26)"/>
<path d="M0 0 C5.21979128 -0.1799928 9.07262981 0.02905192 14 2 C13.52697634 6.25721298 11.18981069 8.32946082 8 11 C4 11 4 11 1.75 9.4375 C-0.58311591 6.18780284 -0.30062557 3.90813239 0 0 Z " fill="#E6EDEC" transform="translate(962,539)"/>
<path d="M0 0 C5.21979128 -0.1799928 9.07262981 0.02905192 14 2 C13.52697634 6.25721298 11.18981069 8.32946082 8 11 C4 11 4 11 1.75 9.4375 C-0.58311591 6.18780284 -0.30062557 3.90813239 0 0 Z " fill="#E6EDEC" transform="translate(962,368)"/>
<path d="M0 0 C5.61 0 11.22 0 17 0 C17 3.96 17 7.92 17 12 C16.34 12 15.68 12 15 12 C15 11.01 15 10.02 15 9 C13.02 9.66 11.04 10.32 9 11 C9.66 8.69 10.32 6.38 11 4 C9.39125 4.12375 9.39125 4.12375 7.75 4.25 C4 4 4 4 0 0 Z " fill="#B59867" transform="translate(34,40)"/>
<path d="M0 0 C2.475 0.495 2.475 0.495 5 1 C6.3125 3.0625 6.3125 3.0625 7 5 C7.66 3.35 8.32 1.7 9 0 C10.32 0 11.64 0 13 0 C13 3.63 13 7.26 13 11 C12.34 11 11.68 11 11 11 C10.67 9.02 10.34 7.04 10 5 C9.34 6.98 8.68 8.96 8 11 C7.01 11 6.02 11 5 11 C4.67 9.68 4.34 8.36 4 7 C3.67 8.32 3.34 9.64 3 11 C2.01 11 1.02 11 0 11 C0 7.37 0 3.74 0 0 Z " fill="#2B3F6A" transform="translate(805,197)"/>
<path d="M0 0 C0.99 0 1.98 0 3 0 C3 2.31 3 4.62 3 7 C4.4540625 6.7215625 4.4540625 6.7215625 5.9375 6.4375 C7.4534375 6.2209375 7.4534375 6.2209375 9 6 C10 7 10 7 10.09765625 9.28515625 C10.08605469 10.20167969 10.07445312 11.11820313 10.0625 12.0625 C10.05347656 12.98160156 10.04445312 13.90070312 10.03515625 14.84765625 C10.02355469 15.55792969 10.01195312 16.26820312 10 17 C9.01 17 8.02 17 7 17 C6.67 14.69 6.34 12.38 6 10 C5.34 10 4.68 10 4 10 C3.67 12.31 3.34 14.62 3 17 C2.01 17 1.02 17 0 17 C0 11.39 0 5.78 0 0 Z " fill="#FAFAFD" transform="translate(222,26)"/>
<path d="M0 0 C4.29 0 8.58 0 13 0 C14 4 14 4 14 6 C14.33 6.99 14.66 7.98 15 9 C14.01 9 13.02 9 12 9 C11.67 8.34 11.34 7.68 11 7 C10.67 7.66 10.34 8.32 10 9 C9.01 9 8.02 9 7 9 C7 7.35 7 5.7 7 4 C5.35 4.33 3.7 4.66 2 5 C2 6.32 2 7.64 2 9 C1.34 9 0.68 9 0 9 C0 6.03 0 3.06 0 0 Z " fill="#ABA2E3" transform="translate(728,148)"/>
<path d="M0 0 C6.75 -0.125 6.75 -0.125 9 1 C9 4.3 9 7.6 9 11 C2.06640625 11.09765625 2.06640625 11.09765625 0 11 C-1 10 -1 10 -1.0625 7.4375 C-1.041875 6.633125 -1.02125 5.82875 -1 5 C0.98 4.67 2.96 4.34 5 4 C5 3.34 5 2.68 5 2 C3.35 2.33 1.7 2.66 0 3 C0 2.01 0 1.02 0 0 Z " fill="#E7E4F7" transform="translate(235,32)"/>
<path d="M0 0 C6.75 -0.125 6.75 -0.125 9 1 C9 4.3 9 7.6 9 11 C2.06640625 11.09765625 2.06640625 11.09765625 0 11 C-1 10 -1 10 -1.0625 7.4375 C-1.041875 6.633125 -1.02125 5.82875 -1 5 C0.98 4.67 2.96 4.34 5 4 C5 3.34 5 2.68 5 2 C3.35 2.33 1.7 2.66 0 3 C0 2.01 0 1.02 0 0 Z " fill="#E7E4F7" transform="translate(110,32)"/>
<path d="M0 0 C-0.3125 2.375 -0.3125 2.375 -1 5 C-1.99 5.66 -2.98 6.32 -4 7 C-2.68 7.33 -1.36 7.66 0 8 C0 8.66 0 9.32 0 10 C-2.64 10 -5.28 10 -8 10 C-8.433125 9.030625 -8.86625 8.06125 -9.3125 7.0625 C-10.7014861 3.72268235 -10.7014861 3.72268235 -14 3 C-14 2.34 -14 1.68 -14 1 C-8.83955235 -0.512545 -5.34001821 -1.33500455 0 0 Z " fill="#F5F5EA" transform="translate(997,540)"/>
<path d="M0 0 C3.375 -0.125 3.375 -0.125 7 0 C9 2 9 2 9.1953125 4.1640625 C9.17210937 4.97617187 9.14890625 5.78828125 9.125 6.625 C9.10695313 7.44226562 9.08890625 8.25953125 9.0703125 9.1015625 C9.03550781 10.04128906 9.03550781 10.04128906 9 11 C7.52093108 11.02689216 6.04172517 11.04634621 4.5625 11.0625 C3.32693359 11.07990234 3.32693359 11.07990234 2.06640625 11.09765625 C0 11 0 11 -1 10 C-1.125 7.5 -1.125 7.5 -1 5 C0 4 0 4 2.5625 3.9375 C3.7690625 3.9684375 3.7690625 3.9684375 5 4 C5 3.34 5 2.68 5 2 C3.35 2.33 1.7 2.66 0 3 C0 2.01 0 1.02 0 0 Z " fill="#F5F4FB" transform="translate(256,32)"/>
<path d="M0 0 C2.31 0 4.62 0 7 0 C7 3.96 7 7.92 7 12 C4.36 12 1.72 12 -1 12 C-1.02712066 10.56260487 -1.04645067 9.12506137 -1.0625 7.6875 C-1.07410156 6.88699219 -1.08570313 6.08648437 -1.09765625 5.26171875 C-1 3 -1 3 0 0 Z " fill="#817B86" transform="translate(737,424)"/>
<path d="M0 0 C2.31 0 4.62 0 7 0 C7 3.96 7 7.92 7 12 C4.36 12 1.72 12 -1 12 C-1.02712066 10.56260487 -1.04645067 9.12506137 -1.0625 7.6875 C-1.07410156 6.88699219 -1.08570313 6.08648437 -1.09765625 5.26171875 C-1 3 -1 3 0 0 Z " fill="#817B86" transform="translate(737,367)"/>
<path d="M0 0 C2.85159659 1.16176157 4.11749539 2.14168562 6.125 4.5625 C9.96689158 7.81975591 12.46281078 7.5942067 17.3125 7.3125 C18.05306641 7.28994141 18.79363281 7.26738281 19.55664062 7.24414062 C21.37197357 7.1855815 23.18625681 7.09590886 25 7 C23.90101298 10.29696105 23.05402613 11.04670589 20.4375 13.1875 C19.79683594 13.71730469 19.15617187 14.24710938 18.49609375 14.79296875 C18.00238281 15.19128906 17.50867188 15.58960937 17 16 C14.08462499 14.68285542 12.0152987 13.26341874 9.765625 10.99609375 C9.19199219 10.42052734 8.61835938 9.84496094 8.02734375 9.25195312 C7.44082031 8.65318359 6.85429687 8.05441406 6.25 7.4375 C5.64800781 6.83486328 5.04601562 6.23222656 4.42578125 5.61132812 C0 1.14038584 0 1.14038584 0 0 Z " fill="#564E55" transform="translate(19,51)"/>
<path d="M0 0 C3.96 0 7.92 0 12 0 C12 0.99 12 1.98 12 3 C10.68 3 9.36 3 8 3 C8 7.29 8 11.58 8 16 C6.68 16 5.36 16 4 16 C4 11.71 4 7.42 4 3 C2.68 3 1.36 3 0 3 C0 2.01 0 1.02 0 0 Z " fill="#F4F3FB" transform="translate(208,27)"/>
<path d="M0 0 C1.32 0 2.64 0 4 0 C4.33 1.98 4.66 3.96 5 6 C5.66 6 6.32 6 7 6 C7.33 4.35 7.66 2.7 8 1 C9.32 0.67 10.64 0.34 12 0 C12 3.63 12 7.26 12 11 C11.34 11 10.68 11 10 11 C9.67 9.35 9.34 7.7 9 6 C8.34 7.65 7.68 9.3 7 11 C6.34 11 5.68 11 5 11 C4.34 9.68 3.68 8.36 3 7 C2.67 8.32 2.34 9.64 2 11 C1.34 11 0.68 11 0 11 C0 7.37 0 3.74 0 0 Z " fill="#434358" transform="translate(815,311)"/>
<path d="M0 0 C2.97 0 5.94 0 9 0 C9 2.64 9 5.28 9 8 C9.99 8.33 10.98 8.66 12 9 C8.04 9 4.08 9 0 9 C0 6.03 0 3.06 0 0 Z " fill="#A49AE0" transform="translate(1121,148)"/>
<path d="M0 0 C1.28515625 1.640625 1.28515625 1.640625 1.28515625 4.640625 C0.62515625 5.300625 -0.03484375 5.960625 -0.71484375 6.640625 C-4.53994409 6.3834754 -6.39307654 4.30764285 -8.96484375 1.640625 C-9.67125 0.91875 -10.37765625 0.196875 -11.10546875 -0.546875 C-12.71484375 -2.359375 -12.71484375 -2.359375 -12.71484375 -3.359375 C-6.67143005 -5.08606463 -4.3994821 -3.98370687 0 0 Z " fill="#CEB385" transform="translate(37.71484375,47.359375)"/>
<path d="M0 0 C1.32 0 2.64 0 4 0 C4.66 1.32 5.32 2.64 6 4 C6.66 2.68 7.32 1.36 8 0 C9.32 0.33 10.64 0.66 12 1 C10.68 4.3 9.36 7.6 8 11 C6.35 11 4.7 11 3 11 C2.49632243 9.54293274 1.99717444 8.08429904 1.5 6.625 C1.2215625 5.81289063 0.943125 5.00078125 0.65625 4.1640625 C0 2 0 2 0 0 Z " fill="#F0EFFA" transform="translate(97,32)"/>
<path d="M0 0 C3.375 -0.125 3.375 -0.125 7 0 C7.66 0.66 8.32 1.32 9 2 C8.625 4.625 8.625 4.625 8 7 C6.68 7.33 5.36 7.66 4 8 C3.67 9.32 3.34 10.64 3 12 C2.01 12 1.02 12 0 12 C0 8.04 0 4.08 0 0 Z " fill="#2C3A59" transform="translate(748,542)"/>
<path d="M0 0 C2.31 0 4.62 0 7 0 C7.59732819 2.76264289 8 5.16032769 8 8 C8.33 8.99 8.66 9.98 9 11 C7.68 10.34 6.36 9.68 5 9 C5 8.34 5 7.68 5 7 C4.34 7 3.68 7 3 7 C3 8.32 3 9.64 3 11 C2.01 11 1.02 11 0 11 C0 7.37 0 3.74 0 0 Z " fill="#6A605D" transform="translate(728,539)"/>
<path d="M0 0 C2.31 0 4.62 0 7 0 C7.59732819 2.76264289 8 5.16032769 8 8 C8.33 8.99 8.66 9.98 9 11 C7.68 10.34 6.36 9.68 5 9 C5 8.34 5 7.68 5 7 C4.34 7 3.68 7 3 7 C3 8.32 3 9.64 3 11 C2.01 11 1.02 11 0 11 C0 7.37 0 3.74 0 0 Z " fill="#6A605D" transform="translate(728,482)"/>
<path d="M0 0 C2.625 0.375 2.625 0.375 5 1 C6.33554084 7.43487859 6.33554084 7.43487859 4.8125 10 C3 11 3 11 0.875 10.75 C-1 10 -1 10 -2 9 C-2.1875 5.5625 -2.1875 5.5625 -2 2 C-1.34 1.34 -0.68 0.68 0 0 Z " fill="#313B57" transform="translate(1010,482)"/>
<path d="M0 0 C2.625 0.375 2.625 0.375 5 1 C6.33554084 7.43487859 6.33554084 7.43487859 4.8125 10 C3 11 3 11 0.875 10.75 C-1 10 -1 10 -2 9 C-2.1875 5.5625 -2.1875 5.5625 -2 2 C-1.34 1.34 -0.68 0.68 0 0 Z " fill="#313B57" transform="translate(1001,482)"/>
<path d="M0 0 C0.99 0 1.98 0 3 0 C3 3.96 3 7.92 3 12 C0.66705225 12.04241723 -1.66702567 12.04092937 -4 12 C-5 11 -5 11 -5.0625 7.9375 C-5.041875 6.968125 -5.02125 5.99875 -5 5 C-3.35 4.67 -1.7 4.34 0 4 C0 2.68 0 1.36 0 0 Z " fill="#6D7380" transform="translate(759,310)"/>
<path d="M0 0 C0.99 0 1.98 0 3 0 C3 3.96 3 7.92 3 12 C0.66705225 12.04241723 -1.66702567 12.04092937 -4 12 C-5 11 -5 11 -5.0625 7.9375 C-5.041875 6.968125 -5.02125 5.99875 -5 5 C-3.35 4.67 -1.7 4.34 0 4 C0 2.68 0 1.36 0 0 Z " fill="#6D7380" transform="translate(759,253)"/>
<path d="M0 0 C0.99 0 1.98 0 3 0 C3 3.96 3 7.92 3 12 C0.66705225 12.04241723 -1.66702567 12.04092937 -4 12 C-5 11 -5 11 -5.0625 7.9375 C-5.041875 6.968125 -5.02125 5.99875 -5 5 C-3.35 4.67 -1.7 4.34 0 4 C0 2.68 0 1.36 0 0 Z " fill="#6D7380" transform="translate(759,196)"/>
<path d="M0 0 C0.66 0 1.32 0 2 0 C2.33 1.32 2.66 2.64 3 4 C3.99 4 4.98 4 6 4 C6 5.32 6 6.64 6 8 C3.92446352 8.5534764 2.15634036 9 0 9 C0 7.35 0 5.7 0 4 C-0.66 4 -1.32 4 -2 4 C-2 5.65 -2 7.3 -2 9 C-4.64 9 -7.28 9 -10 9 C-9.67 7.02 -9.34 5.04 -9 3 C-6.03 3 -3.06 3 0 3 C0 2.01 0 1.02 0 0 Z " fill="#B7AFE6" transform="translate(110,56)"/>
<path d="M0 0 C1.65 0.33 3.3 0.66 5 1 C5.1953125 7.0546875 5.1953125 7.0546875 5 9 C4.34 9.66 3.68 10.32 3 11 C0.375 10.625 0.375 10.625 -2 10 C-2.6875 7.25 -2.6875 7.25 -3 4 C-1.5625 1.625 -1.5625 1.625 0 0 Z " fill="#60433B" transform="translate(992,368)"/>
<path d="M0 0 C1.65 0.33 3.3 0.66 5 1 C5.1953125 7.0546875 5.1953125 7.0546875 5 9 C4.34 9.66 3.68 10.32 3 11 C0.375 10.625 0.375 10.625 -2 10 C-2.6875 7.25 -2.6875 7.25 -3 4 C-1.5625 1.625 -1.5625 1.625 0 0 Z " fill="#60433B" transform="translate(1125,197)"/>
<path d="M0 0 C1.2065625 0.0309375 1.2065625 0.0309375 2.4375 0.0625 C3.47778969 3.44344149 3.59422777 6.53612528 3.4375 10.0625 C2.4375 11.0625 2.4375 11.0625 -0.125 11.125 C-0.929375 11.104375 -1.73375 11.08375 -2.5625 11.0625 C-3.33925511 7.66419639 -3.75632275 4.55130949 -3.5625 1.0625 C-2.5625 0.0625 -2.5625 0.0625 0 0 Z " fill="#6C6E78" transform="translate(993.5625,481.9375)"/>
<path d="M0 0 C1.67542976 0.28604898 3.34385343 0.61781233 5 1 C5.70074844 4.153368 6 6.72724974 6 10 C3.125 10.625 3.125 10.625 0 11 C-2 9 -2 9 -2.01171875 7.08984375 C-1.11111111 1.11111111 -1.11111111 1.11111111 0 0 Z " fill="#9F968F" transform="translate(788,254)"/>
<path d="M0 0 C1.2065625 0.0309375 1.2065625 0.0309375 2.4375 0.0625 C3.47778969 3.44344149 3.59422777 6.53612528 3.4375 10.0625 C2.4375 11.0625 2.4375 11.0625 -0.125 11.125 C-0.929375 11.104375 -1.73375 11.08375 -2.5625 11.0625 C-3.33925511 7.66419639 -3.75632275 4.55130949 -3.5625 1.0625 C-2.5625 0.0625 -2.5625 0.0625 0 0 Z " fill="#6C6E78" transform="translate(993.5625,196.9375)"/>
<path d="M0 0 C2.5 0.25 2.5 0.25 4.5 2.25 C4.75 4.75 4.75 4.75 4.5 7.25 C2.5 9.25 2.5 9.25 0 9.5 C-2.5 9.25 -2.5 9.25 -4.5 7.25 C-4.75 4.75 -4.75 4.75 -4.5 2.25 C-2.5 0.25 -2.5 0.25 0 0 Z " fill="#CFCBEF" transform="translate(747.5,147.75)"/>
<path d="M0 0 C2.625 0.375 2.625 0.375 5 1 C5.1953125 7.0546875 5.1953125 7.0546875 5 9 C4.34 9.66 3.68 10.32 3 11 C0.375 10.625 0.375 10.625 -2 10 C-2.1953125 3.9453125 -2.1953125 3.9453125 -2 2 C-1.34 1.34 -0.68 0.68 0 0 Z " fill="#4A3437" transform="translate(804,425)"/>
<path d="M0 0 C2.625 0.375 2.625 0.375 5 1 C5.1953125 7.0546875 5.1953125 7.0546875 5 9 C4.34 9.66 3.68 10.32 3 11 C0.375 10.625 0.375 10.625 -2 10 C-2.1953125 3.9453125 -2.1953125 3.9453125 -2 2 C-1.34 1.34 -0.68 0.68 0 0 Z " fill="#4A3437" transform="translate(798,311)"/>
<path d="M0 0 C2.625 0.375 2.625 0.375 5 1 C5.1953125 7.0546875 5.1953125 7.0546875 5 9 C4.34 9.66 3.68 10.32 3 11 C0.375 10.625 0.375 10.625 -2 10 C-2.1953125 3.9453125 -2.1953125 3.9453125 -2 2 C-1.34 1.34 -0.68 0.68 0 0 Z " fill="#4A3437" transform="translate(798,254)"/>
<path d="M0 0 C1.65 0 3.3 0 5 0 C5.144375 0.61875 5.28875 1.2375 5.4375 1.875 C5.93152225 4.03258322 5.93152225 4.03258322 7 6 C7.33 5.01 7.66 4.02 8 3 C9.32 3 10.64 3 12 3 C12 4.98 12 6.96 12 9 C8.625 9.1875 8.625 9.1875 5 9 C4.34 8.01 3.68 7.02 3 6 C2.67 6.99 2.34 7.98 2 9 C1.34 9 0.68 9 0 9 C0 6.03 0 3.06 0 0 Z " fill="#B3ABE5" transform="translate(130,56)"/>
<path d="M0 0 C1.32 0 2.64 0 4 0 C4 5.61 4 11.22 4 17 C2.68 17 1.36 17 0 17 C0 11.39 0 5.78 0 0 Z " fill="#EBE9F8" transform="translate(177,26)"/>
<path d="M0 0 C0.99 0.99 1.98 1.98 3 3 C1.55134433 6.38019657 -0.08219573 8.73059668 -3 11 C-6.25 11.25 -6.25 11.25 -9 11 C-8.46324097 7.14896699 -6.88399077 5.68202413 -3.9375 3.25 C-3.20402344 2.63640625 -2.47054688 2.0228125 -1.71484375 1.390625 C-1.14894531 0.93171875 -0.58304688 0.4728125 0 0 Z " fill="#E4CAA7" transform="translate(30,27)"/>
<path d="M0 0 C1.33359073 6.42548263 1.33359073 6.42548263 -0.125 8.9375 C-2.53579338 10.30361625 -4.27294446 10.22111261 -7 10 C-7 9.34 -7 8.68 -7 8 C-5.68 7.34 -4.36 6.68 -3 6 C-4.32 5.67 -5.64 5.34 -7 5 C-7 3.35 -7 1.7 -7 0 C-4.3333581 -1.33332095 -2.83319697 -0.67102033 0 0 Z " fill="#545F72" transform="translate(1015,540)"/>
<path d="M0 0 C1.33359073 6.42548263 1.33359073 6.42548263 -0.125 8.9375 C-2.53579338 10.30361625 -4.27294446 10.22111261 -7 10 C-7 9.34 -7 8.68 -7 8 C-5.68 7.34 -4.36 6.68 -3 6 C-4.32 5.67 -5.64 5.34 -7 5 C-7 3.35 -7 1.7 -7 0 C-4.3333581 -1.33332095 -2.83319697 -0.67102033 0 0 Z " fill="#545F72" transform="translate(775,312)"/>
<path d="M0 0 C2.33294775 -0.04241723 4.66702567 -0.04092937 7 0 C8 1 8 1 8.0625 3.5625 C8.041875 4.366875 8.02125 5.17125 8 6 C6.35 6.33 4.7 6.66 3 7 C3 8.32 3 9.64 3 11 C2.01 11 1.02 11 0 11 C0 7.37 0 3.74 0 0 Z " fill="#7B6B6A" transform="translate(830,311)"/>
<path d="M0 0 C1.33359073 6.42548263 1.33359073 6.42548263 -0.125 8.9375 C-2.53579338 10.30361625 -4.27294446 10.22111261 -7 10 C-7 9.34 -7 8.68 -7 8 C-5.68 7.34 -4.36 6.68 -3 6 C-4.32 5.67 -5.64 5.34 -7 5 C-7 3.35 -7 1.7 -7 0 C-4.3333581 -1.33332095 -2.83319697 -0.67102033 0 0 Z " fill="#545F72" transform="translate(775,255)"/>
<path d="M0 0 C1.33359073 6.42548263 1.33359073 6.42548263 -0.125 8.9375 C-2.53579338 10.30361625 -4.27294446 10.22111261 -7 10 C-7 9.34 -7 8.68 -7 8 C-5.68 7.34 -4.36 6.68 -3 6 C-4.32 5.67 -5.64 5.34 -7 5 C-7 3.35 -7 1.7 -7 0 C-4.3333581 -1.33332095 -2.83319697 -0.67102033 0 0 Z " fill="#545F72" transform="translate(775,198)"/>
<path d="M0 0 C4.70588235 0.70588235 4.70588235 0.70588235 6 2 C6.46153846 7.30769231 6.46153846 7.30769231 4.75 9.875 C3 11 3 11 -1 11 C-1 10.34 -1 9.68 -1 9 C-0.01 8.67 0.98 8.34 2 8 C0.68 7.34 -0.64 6.68 -2 6 C-1.125 1.125 -1.125 1.125 0 0 Z " fill="#35416A" transform="translate(1019,539)"/>
<path d="M0 0 C4.70588235 0.70588235 4.70588235 0.70588235 6 2 C6.46153846 7.30769231 6.46153846 7.30769231 4.75 9.875 C3 11 3 11 -1 11 C-1 10.34 -1 9.68 -1 9 C-0.01 8.67 0.98 8.34 2 8 C0.68 7.34 -0.64 6.68 -2 6 C-1.125 1.125 -1.125 1.125 0 0 Z " fill="#35416A" transform="translate(1143,368)"/>
<path d="M0 0 C4.70588235 0.70588235 4.70588235 0.70588235 6 2 C6.46153846 7.30769231 6.46153846 7.30769231 4.75 9.875 C3 11 3 11 -1 11 C-1 10.34 -1 9.68 -1 9 C-0.01 8.67 0.98 8.34 2 8 C0.68 7.34 -0.64 6.68 -2 6 C-1.125 1.125 -1.125 1.125 0 0 Z " fill="#35416A" transform="translate(779,311)"/>
<path d="M0 0 C4.70588235 0.70588235 4.70588235 0.70588235 6 2 C6.46153846 7.30769231 6.46153846 7.30769231 4.75 9.875 C3 11 3 11 -1 11 C-1 10.34 -1 9.68 -1 9 C-0.01 8.67 0.98 8.34 2 8 C0.68 7.34 -0.64 6.68 -2 6 C-1.125 1.125 -1.125 1.125 0 0 Z " fill="#35416A" transform="translate(779,254)"/>
<path d="M0 0 C4.70588235 0.70588235 4.70588235 0.70588235 6 2 C6.46153846 7.30769231 6.46153846 7.30769231 4.75 9.875 C3 11 3 11 -1 11 C-1 10.34 -1 9.68 -1 9 C-0.01 8.67 0.98 8.34 2 8 C0.68 7.34 -0.64 6.68 -2 6 C-1.125 1.125 -1.125 1.125 0 0 Z " fill="#35416A" transform="translate(779,197)"/>
<path d="M0 0 C4.55555556 0.55555556 4.55555556 0.55555556 6 2 C6.46153846 7.30769231 6.46153846 7.30769231 4.75 9.875 C3 11 3 11 -1 11 C-1 10.34 -1 9.68 -1 9 C0.32 9 1.64 9 3 9 C3 8.34 3 7.68 3 7 C1.68 6.67 0.36 6.34 -1 6 C-1.625 4.125 -1.625 4.125 -2 2 C-1.34 1.34 -0.68 0.68 0 0 Z " fill="#484C5C" transform="translate(788,197)"/>
<path d="M0 0 C0.1953125 6.0546875 0.1953125 6.0546875 0 8 C-2 10 -2 10 -4.625 10.125 C-5.40875 10.08375 -6.1925 10.0425 -7 10 C-7 9.34 -7 8.68 -7 8 C-5.68 7.34 -4.36 6.68 -3 6 C-4.32 5.67 -5.64 5.34 -7 5 C-7 3.35 -7 1.7 -7 0 C-4.3333581 -1.33332095 -2.83319697 -0.67102033 0 0 Z " fill="#555865" transform="translate(781,426)"/>
<path d="M0 0 C0.1953125 6.0546875 0.1953125 6.0546875 0 8 C-2 10 -2 10 -4.625 10.125 C-5.40875 10.08375 -6.1925 10.0425 -7 10 C-7 9.34 -7 8.68 -7 8 C-5.68 7.34 -4.36 6.68 -3 6 C-4.32 5.67 -5.64 5.34 -7 5 C-7 3.35 -7 1.7 -7 0 C-4.3333581 -1.33332095 -2.83319697 -0.67102033 0 0 Z " fill="#555865" transform="translate(1015,369)"/>
<path d="M0 0 C0.1953125 6.0546875 0.1953125 6.0546875 0 8 C-2 10 -2 10 -4.625 10.125 C-5.40875 10.08375 -6.1925 10.0425 -7 10 C-7 9.34 -7 8.68 -7 8 C-5.68 7.34 -4.36 6.68 -3 6 C-4.32 5.67 -5.64 5.34 -7 5 C-7 3.35 -7 1.7 -7 0 C-4.3333581 -1.33332095 -2.83319697 -0.67102033 0 0 Z " fill="#555865" transform="translate(781,369)"/>
<path d="M0 0 C2.5625 0.1875 2.5625 0.1875 4.5625 2.1875 C4.00694444 6.74305556 4.00694444 6.74305556 2.5625 8.1875 C0.125 8.375 0.125 8.375 -2.4375 8.1875 C-3.0975 7.5275 -3.7575 6.8675 -4.4375 6.1875 C-3.71780303 0.28598485 -3.71780303 0.28598485 0 0 Z " fill="#616373" transform="translate(743.4375,313.8125)"/>
<path d="M0 0 C-0.33 0.99 -0.66 1.98 -1 3 C-2.65 3.33 -4.3 3.66 -6 4 C-6.33 5.32 -6.66 6.64 -7 8 C-5.35 8.33 -3.7 8.66 -2 9 C-2 8.34 -2 7.68 -2 7 C-2.66 7 -3.32 7 -4 7 C-4 6.34 -4 5.68 -4 5 C-2.68 5 -1.36 5 0 5 C0 6.98 0 8.96 0 11 C-5.625 11.25 -5.625 11.25 -9 9 C-9.375 5.5 -9.375 5.5 -9 2 C-5.5647952 -0.29013653 -4.014669 -0.17842973 0 0 Z " fill="#2B2E3E" transform="translate(737,311)"/>
<path d="M0 0 C2.00720923 0.28674418 4.0085944 0.61866701 6 1 C6.1953125 7.0546875 6.1953125 7.0546875 6 9 C4 11 4 11 1.375 11.125 C0.59125 11.08375 -0.1925 11.0425 -1 11 C-1 10.34 -1 9.68 -1 9 C0.32 8.34 1.64 7.68 3 7 C1.68 6.67 0.36 6.34 -1 6 C-1.042721 4.33388095 -1.04063832 2.66617115 -1 1 C-0.67 0.67 -0.34 0.34 0 0 Z " fill="#312F42" transform="translate(1124,311)"/>
<path d="M0 0 C2.5625 0.1875 2.5625 0.1875 4.5625 2.1875 C4.00694444 6.74305556 4.00694444 6.74305556 2.5625 8.1875 C0.125 8.375 0.125 8.375 -2.4375 8.1875 C-3.0975 7.5275 -3.7575 6.8675 -4.4375 6.1875 C-3.71780303 0.28598485 -3.71780303 0.28598485 0 0 Z " fill="#616373" transform="translate(821.4375,256.8125)"/>
<path d="M0 0 C2.5625 0.1875 2.5625 0.1875 4.5625 2.1875 C4.00694444 6.74305556 4.00694444 6.74305556 2.5625 8.1875 C0.125 8.375 0.125 8.375 -2.4375 8.1875 C-3.0975 7.5275 -3.7575 6.8675 -4.4375 6.1875 C-3.71780303 0.28598485 -3.71780303 0.28598485 0 0 Z " fill="#616373" transform="translate(743.4375,256.8125)"/>
<path d="M0 0 C-0.33 0.99 -0.66 1.98 -1 3 C-2.65 3.33 -4.3 3.66 -6 4 C-6.33 5.32 -6.66 6.64 -7 8 C-5.35 8.33 -3.7 8.66 -2 9 C-2 8.34 -2 7.68 -2 7 C-2.66 7 -3.32 7 -4 7 C-4 6.34 -4 5.68 -4 5 C-2.68 5 -1.36 5 0 5 C0 6.98 0 8.96 0 11 C-5.625 11.25 -5.625 11.25 -9 9 C-9.375 5.5 -9.375 5.5 -9 2 C-5.5647952 -0.29013653 -4.014669 -0.17842973 0 0 Z " fill="#2B2E3E" transform="translate(737,254)"/>
<path d="M0 0 C2.5625 0.1875 2.5625 0.1875 4.5625 2.1875 C4.00694444 6.74305556 4.00694444 6.74305556 2.5625 8.1875 C0.125 8.375 0.125 8.375 -2.4375 8.1875 C-3.0975 7.5275 -3.7575 6.8675 -4.4375 6.1875 C-3.71780303 0.28598485 -3.71780303 0.28598485 0 0 Z " fill="#616373" transform="translate(743.4375,199.8125)"/>
<path d="M0 0 C-0.33 0.99 -0.66 1.98 -1 3 C-2.65 3.33 -4.3 3.66 -6 4 C-6.33 5.32 -6.66 6.64 -7 8 C-5.35 8.33 -3.7 8.66 -2 9 C-2 8.34 -2 7.68 -2 7 C-2.66 7 -3.32 7 -4 7 C-4 6.34 -4 5.68 -4 5 C-2.68 5 -1.36 5 0 5 C0 6.98 0 8.96 0 11 C-5.625 11.25 -5.625 11.25 -9 9 C-9.375 5.5 -9.375 5.5 -9 2 C-5.5647952 -0.29013653 -4.014669 -0.17842973 0 0 Z " fill="#2B2E3E" transform="translate(737,197)"/>
<path d="M0 0 C5.75 -0.125 5.75 -0.125 8 1 C7.67 2.65 7.34 4.3 7 6 C5.35 6.33 3.7 6.66 2 7 C2 8.32 2 9.64 2 11 C1.34 11 0.68 11 0 11 C0 7.37 0 3.74 0 0 Z " fill="#332F47" transform="translate(821,197)"/>
<path d="M0 0 C0.33 0 0.66 0 1 0 C1 5.61 1 11.22 1 17 C-1 14 -1 14 -1.25 12.0625 C-2.42909906 8.81997759 -5.17510216 7.80312628 -8 6 C-8 5.34 -8 4.68 -8 4 C-5.03 4.495 -5.03 4.495 -2 5 C-1.855625 4.360625 -1.71125 3.72125 -1.5625 3.0625 C-1 1 -1 1 0 0 Z " fill="#8477D5" transform="translate(78,26)"/>
<path d="M0 0 C-0.33 1.32 -0.66 2.64 -1 4 C-0.34 4.33 0.32 4.66 1 5 C0.01 6.485 0.01 6.485 -1 8 C0.32 8 1.64 8 3 8 C3 5.36 3 2.72 3 0 C3.66 0 4.32 0 5 0 C5.33 3.63 5.66 7.26 6 11 C3.36 10.67 0.72 10.34 -2 10 C-4 4.375 -4 4.375 -4 1 C-2 0 -2 0 0 0 Z " fill="#363D5C" transform="translate(819,425)"/>
<path d="M0 0 C2.31 0.33 4.62 0.66 7 1 C7.125 3.875 7.125 3.875 7 7 C5 9 5 9 2.375 9.125 C1.59125 9.08375 0.8075 9.0425 0 9 C0 6.03 0 3.06 0 0 Z " fill="#E4E1F6" transform="translate(754,148)"/>
<path d="M0 0 C0.99 0 1.98 0 3 0 C3.33 2.97 3.66 5.94 4 9 C3.34 9 2.68 9 2 9 C2 9.66 2 10.32 2 11 C1.34 11 0.68 11 0 11 C0 10.34 0 9.68 0 9 C-1.65 9 -3.3 9 -5 9 C-3.76067171 5.56801397 -2.49698489 2.69674368 0 0 Z " fill="#303544" transform="translate(1136,197)"/>
<path d="M0 0 C1.32 0 2.64 0 4 0 C4 0.66 4 1.32 4 2 C3.01 2.66 2.02 3.32 1 4 C2.32 4.33 3.64 4.66 5 5 C4.67 6.65 4.34 8.3 4 10 C2.34385343 10.38218767 0.67542976 10.71395102 -1 11 C-2.89488952 9.10511048 -2.18019112 6.42860854 -2.23046875 3.91015625 C-2 2 -2 2 0 0 Z " fill="#484B5B" transform="translate(1116,197)"/>
<path d="M0 0 C0.66 0 1.32 0 2 0 C2.66 1.32 3.32 2.64 4 4 C4.45375 3.34 4.9075 2.68 5.375 2 C5.91125 1.34 6.4475 0.68 7 0 C7.66 0 8.32 0 9 0 C9 2.97 9 5.94 9 9 C7 9 5 9 3 9 C2.67 8.01 2.34 7.02 2 6 C1.34 6.99 0.68 7.98 0 9 C0 6.03 0 3.06 0 0 Z " fill="#B9B2E7" transform="translate(90,56)"/>
<path d="M0 0 C0.66 0 1.32 0 2 0 C2 2.64 2 5.28 2 8 C2.99 8 3.98 8 5 8 C5 6.35 5 4.7 5 3 C5.763125 3.185625 6.52625 3.37125 7.3125 3.5625 C10.08967375 4.22819173 10.08967375 4.22819173 13 3 C12.34 4.98 11.68 6.96 11 9 C10.34 9 9.68 9 9 9 C8.67 8.34 8.34 7.68 8 7 C7.67 7.66 7.34 8.32 7 9 C4.69 9 2.38 9 0 9 C0 6.03 0 3.06 0 0 Z " fill="#BAB3E7" transform="translate(66,56)"/>
<path d="M0 0 C2.31 0 4.62 0 7 0 C7 0.99 7 1.98 7 3 C6.01 3 5.02 3 4 3 C4 5.64 4 8.28 4 11 C2.68 11 1.36 11 0 11 C0 7.37 0 3.74 0 0 Z " fill="#F0EFFA" transform="translate(247,32)"/>
<path d="M0 0 C1.21816406 0.03480469 1.21816406 0.03480469 2.4609375 0.0703125 C3.68683594 0.09738281 3.68683594 0.09738281 4.9375 0.125 C5.87722656 0.15980469 5.87722656 0.15980469 6.8359375 0.1953125 C6.1759375 0.8553125 5.5159375 1.5153125 4.8359375 2.1953125 C5.4959375 2.5253125 6.1559375 2.8553125 6.8359375 3.1953125 C6.8359375 4.1853125 6.8359375 5.1753125 6.8359375 6.1953125 C3.5359375 6.1953125 0.2359375 6.1953125 -3.1640625 6.1953125 C-3.4940625 4.8753125 -3.8240625 3.5553125 -4.1640625 2.1953125 C-2.1640625 0.1953125 -2.1640625 0.1953125 0 0 Z " fill="#B0A8E4" transform="translate(151.1640625,58.8046875)"/>
<path d="M0 0 C0.66 0 1.32 0 2 0 C2 2.31 2 4.62 2 7 C2.66 7 3.32 7 4 7 C4 7.66 4 8.32 4 9 C3.34 9 2.68 9 2 9 C2 9.66 2 10.32 2 11 C1.34 11 0.68 11 0 11 C0 10.34 0 9.68 0 9 C-1.65 9 -3.3 9 -5 9 C-3.7580393 5.56072421 -2.44259716 2.74792181 0 0 Z " fill="#303544" transform="translate(1003,539)"/>
<path d="M0 0 C0.66 0 1.32 0 2 0 C2 2.31 2 4.62 2 7 C2.66 7 3.32 7 4 7 C4 7.66 4 8.32 4 9 C3.34 9 2.68 9 2 9 C2 9.66 2 10.32 2 11 C1.34 11 0.68 11 0 11 C0 10.34 0 9.68 0 9 C-1.65 9 -3.3 9 -5 9 C-3.7580393 5.56072421 -2.44259716 2.74792181 0 0 Z " fill="#303544" transform="translate(1136,368)"/>
<path d="M0 0 C2.97 0.495 2.97 0.495 6 1 C6 3.97 6 6.94 6 10 C3.69 10.33 1.38 10.66 -1 11 C-0.67 10.01 -0.34 9.02 0 8 C0.99 8.33 1.98 8.66 3 9 C3 8.01 3 7.02 3 6 C2.01 6 1.02 6 0 6 C0 5.34 0 4.68 0 4 C0.99 4 1.98 4 3 4 C3 3.34 3 2.68 3 2 C1.68 2.33 0.36 2.66 -1 3 C-0.67 2.01 -0.34 1.02 0 0 Z " fill="#424054" transform="translate(1000,368)"/>
<path d="M0 0 C4.875 0.875 4.875 0.875 6 2 C6.07179964 3.51928038 6.08392007 5.04167482 6.0625 6.5625 C6.05347656 7.38878906 6.04445313 8.21507812 6.03515625 9.06640625 C6.01775391 10.02353516 6.01775391 10.02353516 6 11 C4.68 11 3.36 11 2 11 C1.87625 9.88625 1.7525 8.7725 1.625 7.625 C1.3534187 3.96896323 1.3534187 3.96896323 -1 2 C-0.67 1.34 -0.34 0.68 0 0 Z " fill="#EDEBF9" transform="translate(84,32)"/>
<path d="M0 0 C2.31 0.33 4.62 0.66 7 1 C7 3.31 7 5.62 7 8 C4.69 8 2.38 8 0 8 C0.185625 7.236875 0.37125 6.47375 0.5625 5.6875 C1.22819173 2.91032625 1.22819173 2.91032625 0 0 Z " fill="#444C5A" transform="translate(758,542)"/>
<path d="M0 0 C1.67542976 0.28604898 3.34385343 0.61781233 5 1 C5.93423645 4.01031744 6.04449911 4.86650268 5 8 C2.625 8.125 2.625 8.125 0 8 C-0.66 7.34 -1.32 6.68 -2 6 C-1.44444444 1.44444444 -1.44444444 1.44444444 0 0 Z " fill="#3B3E51" transform="translate(756,428)"/>
<path d="M0 0 C-0.33 0.99 -0.66 1.98 -1 3 C-2.32 2.67 -3.64 2.34 -5 2 C-5 2.66 -5 3.32 -5 4 C-2.525 4.99 -2.525 4.99 0 6 C-0.33 7.65 -0.66 9.3 -1 11 C-2.98 11 -4.96 11 -7 11 C-6.67 10.01 -6.34 9.02 -6 8 C-4.02 8.495 -4.02 8.495 -2 9 C-2 8.34 -2 7.68 -2 7 C-4.475 6.01 -4.475 6.01 -7 5 C-7 3.68 -7 2.36 -7 1 C-4.53721199 -0.231394 -2.7204945 -0.07159196 0 0 Z " fill="#2C2E44" transform="translate(735,425)"/>
<path d="M0 0 C1.67542976 0.28604898 3.34385343 0.61781233 5 1 C5.93423645 4.01031744 6.04449911 4.86650268 5 8 C2.625 8.125 2.625 8.125 0 8 C-0.66 7.34 -1.32 6.68 -2 6 C-1.44444444 1.44444444 -1.44444444 1.44444444 0 0 Z " fill="#3B3E51" transform="translate(756,371)"/>
<path d="M0 0 C1.67542976 0.28604898 3.34385343 0.61781233 5 1 C5.33 2.32 5.66 3.64 6 5 C4.68 5.99 3.36 6.98 2 8 C3.32 8.33 4.64 8.66 6 9 C6 9.66 6 10.32 6 11 C3.36 11 0.72 11 -2 11 C-1.6875 9.125 -1.6875 9.125 -1 7 C-0.01 6.34 0.98 5.68 2 5 C2.33 4.01 2.66 3.02 3 2 C1.68 1.67 0.36 1.34 -1 1 C-0.67 0.67 -0.34 0.34 0 0 Z " fill="#2C3E5A" transform="translate(1152,368)"/>
<path d="M0 0 C-0.33 0.99 -0.66 1.98 -1 3 C-2.32 2.67 -3.64 2.34 -5 2 C-5 2.66 -5 3.32 -5 4 C-2.525 4.99 -2.525 4.99 0 6 C-0.33 7.65 -0.66 9.3 -1 11 C-2.98 11 -4.96 11 -7 11 C-6.67 10.01 -6.34 9.02 -6 8 C-4.02 8.495 -4.02 8.495 -2 9 C-2 8.34 -2 7.68 -2 7 C-4.475 6.01 -4.475 6.01 -7 5 C-7 3.68 -7 2.36 -7 1 C-4.53721199 -0.231394 -2.7204945 -0.07159196 0 0 Z " fill="#2C2E44" transform="translate(735,368)"/>
<path d="M0 0 C0 0.66 0 1.32 0 2 C-1.98 2.99 -1.98 2.99 -4 4 C-2.68 4.33 -1.36 4.66 0 5 C0.625 6.875 0.625 6.875 1 9 C0.34 9.66 -0.32 10.32 -1 11 C-1.99 11 -2.98 11 -4 11 C-4 10.34 -4 9.68 -4 9 C-3.34 9 -2.68 9 -2 9 C-2 8.01 -2 7.02 -2 6 C-2.99 6 -3.98 6 -5 6 C-5 6.99 -5 7.98 -5 9 C-5.66 9 -6.32 9 -7 9 C-7.36363636 3.54545455 -7.36363636 3.54545455 -5.75 1.125 C-4 0 -4 0 0 0 Z " fill="#3C2F3C" transform="translate(1006,311)"/>
<path d="M0 0 C2.64 0 5.28 0 8 0 C8 4 8 4 6.5 5.75 C6.005 6.1625 5.51 6.575 5 7 C5.66 8.32 6.32 9.64 7 11 C4.50638429 9.79618552 2.31856917 8.54571278 0 7 C-0.1875 3.375 -0.1875 3.375 0 0 Z " fill="#393A46" transform="translate(1095,311)"/>
<path d="M0 0 C2.31 0.33 4.62 0.66 7 1 C7 3.31 7 5.62 7 8 C4.69 8 2.38 8 0 8 C0.185625 7.236875 0.37125 6.47375 0.5625 5.6875 C1.22819173 2.91032625 1.22819173 2.91032625 0 0 Z " fill="#444C5A" transform="translate(835,257)"/>
<path d="M0 0 C0 0.66 0 1.32 0 2 C-1.98 2.99 -1.98 2.99 -4 4 C-2.68 4.33 -1.36 4.66 0 5 C0.625 6.875 0.625 6.875 1 9 C0.34 9.66 -0.32 10.32 -1 11 C-1.99 11 -2.98 11 -4 11 C-4 10.34 -4 9.68 -4 9 C-3.34 9 -2.68 9 -2 9 C-2 8.01 -2 7.02 -2 6 C-2.99 6 -3.98 6 -5 6 C-5 6.99 -5 7.98 -5 9 C-5.66 9 -6.32 9 -7 9 C-7.36363636 3.54545455 -7.36363636 3.54545455 -5.75 1.125 C-4 0 -4 0 0 0 Z " fill="#3C2F3C" transform="translate(1006,197)"/>
<path d="M0 0 C2.64 0 5.28 0 8 0 C8 4 8 4 6.5 5.75 C6.005 6.1625 5.51 6.575 5 7 C5.66 8.32 6.32 9.64 7 11 C4.50638429 9.79618552 2.31856917 8.54571278 0 7 C-0.1875 3.375 -0.1875 3.375 0 0 Z " fill="#393A46" transform="translate(1095,197)"/>
<path d="M0 0 C1.98 0 3.96 0 6 0 C6 0.66 6 1.32 6 2 C4.68 2 3.36 2 2 2 C2 2.66 2 3.32 2 4 C3.32 4.33 4.64 4.66 6 5 C6.625 6.875 6.625 6.875 7 9 C5 11 5 11 2.375 11.125 C1.59125 11.08375 0.8075 11.0425 0 11 C0 10.34 0 9.68 0 9 C1.32 9 2.64 9 4 9 C4 8.01 4 7.02 4 6 C2.68 6 1.36 6 0 6 C0 4.02 0 2.04 0 0 Z " fill="#32354C" transform="translate(981,539)"/>
<path d="M0 0 C1.98 0 3.96 0 6 0 C6 0.66 6 1.32 6 2 C4.68 2 3.36 2 2 2 C2 2.66 2 3.32 2 4 C3.32 4.33 4.64 4.66 6 5 C6.625 6.875 6.625 6.875 7 9 C5 11 5 11 2.375 11.125 C1.59125 11.08375 0.8075 11.0425 0 11 C0 10.34 0 9.68 0 9 C1.32 9 2.64 9 4 9 C4 8.01 4 7.02 4 6 C2.68 6 1.36 6 0 6 C0 4.02 0 2.04 0 0 Z " fill="#32354C" transform="translate(981,482)"/>
<path d="M0 0 C1.65 0 3.3 0 5 0 C5.33 1.32 5.66 2.64 6 4 C4.35 5.32 2.7 6.64 1 8 C2.98 8 4.96 8 7 8 C7 8.66 7 9.32 7 10 C3.625 10.625 3.625 10.625 0 11 C-0.66 10.34 -1.32 9.68 -2 9 C-1.625 6.875 -1.625 6.875 -1 5 C0.65 4.67 2.3 4.34 4 4 C4 3.34 4 2.68 4 2 C2.68 2 1.36 2 0 2 C0 1.34 0 0.68 0 0 Z " fill="#504E58" transform="translate(834,425)"/>
<path d="M0 0 C1.98 0 3.96 0 6 0 C6 0.66 6 1.32 6 2 C4.68 2 3.36 2 2 2 C2 2.66 2 3.32 2 4 C3.32 4.33 4.64 4.66 6 5 C6.625 6.875 6.625 6.875 7 9 C5 11 5 11 2.375 11.125 C1.59125 11.08375 0.8075 11.0425 0 11 C0 10.34 0 9.68 0 9 C1.32 9 2.64 9 4 9 C4 8.01 4 7.02 4 6 C2.68 6 1.36 6 0 6 C0 4.02 0 2.04 0 0 Z " fill="#32354C" transform="translate(1114,368)"/>
<path d="M0 0 C1.98 0 3.96 0 6 0 C6 0.66 6 1.32 6 2 C4.68 2 3.36 2 2 2 C2 2.66 2 3.32 2 4 C3.32 4.33 4.64 4.66 6 5 C6.625 6.875 6.625 6.875 7 9 C5 11 5 11 2.375 11.125 C1.59125 11.08375 0.8075 11.0425 0 11 C0 10.34 0 9.68 0 9 C1.32 9 2.64 9 4 9 C4 8.01 4 7.02 4 6 C2.68 6 1.36 6 0 6 C0 4.02 0 2.04 0 0 Z " fill="#32354C" transform="translate(981,368)"/>
<path d="M0 0 C2.64 0 5.28 0 8 0 C8 4 8 4 6.5 5.75 C6.005 6.1625 5.51 6.575 5 7 C5.66 8.32 6.32 9.64 7 11 C4.50638429 9.79618552 2.31856917 8.54571278 0 7 C-0.1875 3.375 -0.1875 3.375 0 0 Z " fill="#383842" transform="translate(1095,368)"/>
<path d="M0 0 C1.98 0 3.96 0 6 0 C6 0.66 6 1.32 6 2 C4.68 2 3.36 2 2 2 C2 2.66 2 3.32 2 4 C3.32 4.33 4.64 4.66 6 5 C5.125 9.875 5.125 9.875 4 11 C2.33382885 11.04063832 0.66611905 11.042721 -1 11 C-0.67 10.01 -0.34 9.02 0 8 C0.99 7.67 1.98 7.34 3 7 C2.01 6.67 1.02 6.34 0 6 C0 4.02 0 2.04 0 0 Z " fill="#2E3A51" transform="translate(1133,311)"/>
<path d="M0 0 C1.98 0 3.96 0 6 0 C6 0.66 6 1.32 6 2 C4.68 2 3.36 2 2 2 C2 2.66 2 3.32 2 4 C3.32 4.33 4.64 4.66 6 5 C6.625 6.875 6.625 6.875 7 9 C5 11 5 11 2.375 11.125 C1.59125 11.08375 0.8075 11.0425 0 11 C0 10.34 0 9.68 0 9 C1.32 9 2.64 9 4 9 C4 8.01 4 7.02 4 6 C2.68 6 1.36 6 0 6 C0 4.02 0 2.04 0 0 Z " fill="#32354C" transform="translate(1114,311)"/>
<path d="M0 0 C1.98 0 3.96 0 6 0 C6 0.66 6 1.32 6 2 C4.68 2 3.36 2 2 2 C2 2.66 2 3.32 2 4 C3.32 4.33 4.64 4.66 6 5 C5.125 9.875 5.125 9.875 4 11 C2.33382885 11.04063832 0.66611905 11.042721 -1 11 C-0.67 10.01 -0.34 9.02 0 8 C0.99 7.67 1.98 7.34 3 7 C2.01 6.67 1.02 6.34 0 6 C0 4.02 0 2.04 0 0 Z " fill="#2E3A51" transform="translate(1009,311)"/>
<path d="M0 0 C1.98 0 3.96 0 6 0 C6 0.66 6 1.32 6 2 C4.68 2 3.36 2 2 2 C2 2.66 2 3.32 2 4 C3.32 4.33 4.64 4.66 6 5 C6.625 6.875 6.625 6.875 7 9 C5 11 5 11 2.375 11.125 C1.59125 11.08375 0.8075 11.0425 0 11 C0 10.34 0 9.68 0 9 C1.32 9 2.64 9 4 9 C4 8.01 4 7.02 4 6 C2.68 6 1.36 6 0 6 C0 4.02 0 2.04 0 0 Z " fill="#32354C" transform="translate(981,311)"/>
<path d="M0 0 C1.98 0 3.96 0 6 0 C6 0.66 6 1.32 6 2 C4.68 2 3.36 2 2 2 C2 2.66 2 3.32 2 4 C3.32 4.33 4.64 4.66 6 5 C5.125 9.875 5.125 9.875 4 11 C2.33382885 11.04063832 0.66611905 11.042721 -1 11 C-0.67 10.01 -0.34 9.02 0 8 C0.99 7.67 1.98 7.34 3 7 C2.01 6.67 1.02 6.34 0 6 C0 4.02 0 2.04 0 0 Z " fill="#2E3A51" transform="translate(1009,197)"/>
<path d="M0 0 C1.98 0 3.96 0 6 0 C6 0.66 6 1.32 6 2 C4.68 2 3.36 2 2 2 C2 2.66 2 3.32 2 4 C3.32 4.33 4.64 4.66 6 5 C6.625 6.875 6.625 6.875 7 9 C5 11 5 11 2.375 11.125 C1.59125 11.08375 0.8075 11.0425 0 11 C0 10.34 0 9.68 0 9 C1.32 9 2.64 9 4 9 C4 8.01 4 7.02 4 6 C2.68 6 1.36 6 0 6 C0 4.02 0 2.04 0 0 Z " fill="#32354C" transform="translate(981,197)"/>
<path d="M0 0 C2.31 0 4.62 0 7 0 C6.125 4.75 6.125 4.75 5 7 C5.89163577 9.11683841 5.89163577 9.11683841 7 11 C4 11 4 11 1.8125 9.4375 C-0.60192567 6.19051375 -0.3037572 3.94884357 0 0 Z " fill="#33314D" transform="translate(962,539)"/>
<path d="M0 0 C2.31 0 4.62 0 7 0 C6.125 4.75 6.125 4.75 5 7 C5.89163577 9.11683841 5.89163577 9.11683841 7 11 C4 11 4 11 1.8125 9.4375 C-0.60192567 6.19051375 -0.3037572 3.94884357 0 0 Z " fill="#33314D" transform="translate(962,482)"/>
<path d="M0 0 C2.33294775 -0.04241723 4.66702567 -0.04092937 7 0 C8 1 8 1 8.0625 4.5625 C8.041875 5.696875 8.02125 6.83125 8 8 C7.01 8 6.02 8 5 8 C5 6.02 5 4.04 5 2 C4.01 2.495 4.01 2.495 3 3 C2.34444881 5.52733235 2.34444881 5.52733235 2 8 C1.34 8 0.68 8 0 8 C0 5.36 0 2.72 0 0 Z " fill="#4B4F60" transform="translate(747,485)"/>
<path d="M0 0 C2.31 0 4.62 0 7 0 C6.125 4.75 6.125 4.75 5 7 C5.89163577 9.11683841 5.89163577 9.11683841 7 11 C4 11 4 11 1.8125 9.4375 C-0.60192567 6.19051375 -0.3037572 3.94884357 0 0 Z " fill="#33314D" transform="translate(962,368)"/>
<path d="M0 0 C2.31 0 4.62 0 7 0 C6.125 4.75 6.125 4.75 5 7 C5.89163577 9.11683841 5.89163577 9.11683841 7 11 C4 11 4 11 1.8125 9.4375 C-0.60192567 6.19051375 -0.3037572 3.94884357 0 0 Z " fill="#33314D" transform="translate(962,311)"/>
<path d="M0 0 C2.31 0 4.62 0 7 0 C6.125 4.75 6.125 4.75 5 7 C5.89163577 9.11683841 5.89163577 9.11683841 7 11 C4 11 4 11 1.8125 9.4375 C-0.60192567 6.19051375 -0.3037572 3.94884357 0 0 Z " fill="#33314D" transform="translate(962,197)"/>
<path d="M0 0 C1.65 0 3.3 0 5 0 C5.5534764 2.07553648 6 3.84365964 6 6 C6.33 6.99 6.66 7.98 7 9 C6.01 9 5.02 9 4 9 C3.67 8.34 3.34 7.68 3 7 C2.67 7.66 2.34 8.32 2 9 C1.34 9 0.68 9 0 9 C0 6.03 0 3.06 0 0 Z " fill="#E6E4F7" transform="translate(736,148)"/>
<path d="M0 0 C2.97 0.495 2.97 0.495 6 1 C5.6875 3.375 5.6875 3.375 5 6 C4.01 6.66 3.02 7.32 2 8 C3.32 8.33 4.64 8.66 6 9 C6 9.66 6 10.32 6 11 C3.69 11 1.38 11 -1 11 C-0.35455571 7.51460083 1.10134397 4.97180943 3 2 C1.68 2.33 0.36 2.66 -1 3 C-0.67 2.01 -0.34 1.02 0 0 Z " fill="#413B55" transform="translate(991,539)"/>
<path d="M0 0 C1.66611905 -0.042721 3.33382885 -0.04063832 5 0 C6 1 6 1 6.0625 4.5625 C6.041875 5.696875 6.02125 6.83125 6 8 C4.02 8 2.04 8 0 8 C-0.98120464 4.94736336 -0.98120464 3.05263664 0 0 Z " fill="#433E4F" transform="translate(739,485)"/>
<path d="M0 0 C1.67542976 0.28604898 3.34385343 0.61781233 5 1 C5.1875 3.375 5.1875 3.375 5 6 C4.01 6.66 3.02 7.32 2 8 C3.32 8.33 4.64 8.66 6 9 C6 9.66 6 10.32 6 11 C3.36 11 0.72 11 -2 11 C-1.6875 9.125 -1.6875 9.125 -1 7 C-0.01 6.34 0.98 5.68 2 5 C2.33 4.01 2.66 3.02 3 2 C1.68 1.67 0.36 1.34 -1 1 C-0.67 0.67 -0.34 0.34 0 0 Z " fill="#273148" transform="translate(794,425)"/>
<path d="M0 0 C1.67542976 0.28604898 3.34385343 0.61781233 5 1 C5.1875 3.375 5.1875 3.375 5 6 C4.01 6.66 3.02 7.32 2 8 C3.32 8.33 4.64 8.66 6 9 C6 9.66 6 10.32 6 11 C3.36 11 0.72 11 -2 11 C-1.6875 9.125 -1.6875 9.125 -1 7 C-0.01 6.34 0.98 5.68 2 5 C2.33 4.01 2.66 3.02 3 2 C1.68 1.67 0.36 1.34 -1 1 C-0.67 0.67 -0.34 0.34 0 0 Z " fill="#273148" transform="translate(1106,368)"/>
<path d="M0 0 C1.67542976 0.28604898 3.34385343 0.61781233 5 1 C5.1875 3.375 5.1875 3.375 5 6 C4.01 6.66 3.02 7.32 2 8 C3.32 8.33 4.64 8.66 6 9 C6 9.66 6 10.32 6 11 C3.36 11 0.72 11 -2 11 C-1.6875 9.125 -1.6875 9.125 -1 7 C-0.01 6.34 0.98 5.68 2 5 C2.33 4.01 2.66 3.02 3 2 C1.68 1.67 0.36 1.34 -1 1 C-0.67 0.67 -0.34 0.34 0 0 Z " fill="#273148" transform="translate(788,311)"/>
<path d="M0 0 C6.34375 -0.48798077 6.34375 -0.48798077 9.4375 1.8125 C11 4 11 4 11 7 C7.98342209 6.85969405 5.76158727 6.70648535 3.48828125 4.59765625 C2.26743934 3.11095765 1.12753478 1.55865102 0 0 Z " fill="#D5D4D9" transform="translate(20,50)"/>
<path d="M0 0 C1.32 0 2.64 0 4 0 C4 3.63 4 7.26 4 11 C2.68 11 1.36 11 0 11 C0 7.37 0 3.74 0 0 Z " fill="#EBE9F8" transform="translate(92,32)"/>
<path d="M0 0 C1.98 0 3.96 0 6 0 C6 0.66 6 1.32 6 2 C4.68 2 3.36 2 2 2 C2 2.66 2 3.32 2 4 C3.32 4.33 4.64 4.66 6 5 C6 6.65 6 8.3 6 10 C4.02 10.33 2.04 10.66 0 11 C0 10.34 0 9.68 0 9 C1.32 9 2.64 9 4 9 C4 8.01 4 7.02 4 6 C2.68 6 1.36 6 0 6 C0 4.02 0 2.04 0 0 Z " fill="#292B45" transform="translate(1142,311)"/>
<path d="M0 0 C1.98 0 3.96 0 6 0 C6 0.66 6 1.32 6 2 C4.68 2 3.36 2 2 2 C2 2.66 2 3.32 2 4 C3.32 4.33 4.64 4.66 6 5 C6 6.65 6 8.3 6 10 C4.02 10.33 2.04 10.66 0 11 C0 10.34 0 9.68 0 9 C1.32 9 2.64 9 4 9 C4 8.01 4 7.02 4 6 C2.68 6 1.36 6 0 6 C0 4.02 0 2.04 0 0 Z " fill="#292B45" transform="translate(1142,197)"/>
<path d="M0 0 C2.00720923 0.28674418 4.0085944 0.61866701 6 1 C6 2.98 6 4.96 6 7 C4.00045254 7.04254356 1.99958364 7.04080783 0 7 C-1 6 -1 6 -1.125 3.5 C-1 1 -1 1 0 0 Z " fill="#E0DDF4" transform="translate(256,36)"/>
<path d="M0 0 C1.65 0 3.3 0 5 0 C5.6875 2.3125 5.6875 2.3125 6 5 C4.5625 6.8125 4.5625 6.8125 3 8 C3.99 8.33 4.98 8.66 6 9 C6 9.66 6 10.32 6 11 C3.69 11 1.38 11 -1 11 C-0.6875 9.125 -0.6875 9.125 0 7 C0.99 6.34 1.98 5.68 3 5 C3.33 4.01 3.66 3.02 4 2 C2.68 2 1.36 2 0 2 C0 1.34 0 0.68 0 0 Z " fill="#322E40" transform="translate(972,539)"/>
<path d="M0 0 C1.65 0 3.3 0 5 0 C5.6875 2.3125 5.6875 2.3125 6 5 C4.5625 6.8125 4.5625 6.8125 3 8 C3.99 8.33 4.98 8.66 6 9 C6 9.66 6 10.32 6 11 C3.69 11 1.38 11 -1 11 C-0.6875 9.125 -0.6875 9.125 0 7 C0.99 6.34 1.98 5.68 3 5 C3.33 4.01 3.66 3.02 4 2 C2.68 2 1.36 2 0 2 C0 1.34 0 0.68 0 0 Z " fill="#322E40" transform="translate(1018,368)"/>
<path d="M0 0 C1.65 0 3.3 0 5 0 C5.6875 2.3125 5.6875 2.3125 6 5 C4.5625 6.8125 4.5625 6.8125 3 8 C3.99 8.33 4.98 8.66 6 9 C6 9.66 6 10.32 6 11 C3.69 11 1.38 11 -1 11 C-0.6875 9.125 -0.6875 9.125 0 7 C0.99 6.34 1.98 5.68 3 5 C3.33 4.01 3.66 3.02 4 2 C2.68 2 1.36 2 0 2 C0 1.34 0 0.68 0 0 Z " fill="#322E40" transform="translate(972,368)"/>
<path d="M0 0 C0.99 0 1.98 0 3 0 C3 1.32 3 2.64 3 4 C4.32 4 5.64 4 7 4 C7 4.99 7 5.98 7 7 C5.68 7 4.36 7 3 7 C2.67 7.66 2.34 8.32 2 9 C0.02 8.34 -1.96 7.68 -4 7 C-3.525625 6.5875 -3.05125 6.175 -2.5625 5.75 C-0.83733482 3.817815 -0.43415125 2.51807725 0 0 Z " fill="#EBEEE8" transform="translate(1111,370)"/>
<path d="M0 0 C-0.75 4.75 -0.75 4.75 -3 7 C-6.125 7.125 -6.125 7.125 -9 7 C-9 6.01 -9 5.02 -9 4 C-3.85714286 0 -3.85714286 0 0 0 Z " fill="#DAD9DA" transform="translate(49,49)"/>
<path d="M0 0 C5.75 3.625 5.75 3.625 8 7 C2.71502591 7.44041451 2.71502591 7.44041451 0 7 C-2.5 4.5 -2.5 4.5 -4 2 C-2.68 2.33 -1.36 2.66 0 3 C0 2.01 0 1.02 0 0 Z " fill="#886E44" transform="translate(42,30)"/>
<path d="M0 0 C0 0.99 0 1.98 0 3 C-2.5 4.6875 -2.5 4.6875 -5 6 C-4.67 6.33 -4.34 6.66 -4 7 C0.09789669 6.62056512 2.53958935 6.30694043 6 4 C4.125 7.875 4.125 7.875 3 9 C-4.21182266 9.591133 -4.21182266 9.591133 -7.5 7.125 C-9 5 -9 5 -9 3 C-8.43410156 2.86722656 -7.86820313 2.73445313 -7.28515625 2.59765625 C-6.18494141 2.33275391 -6.18494141 2.33275391 -5.0625 2.0625 C-4.33160156 1.88847656 -3.60070313 1.71445312 -2.84765625 1.53515625 C-1.00030102 1.16112431 -1.00030102 1.16112431 0 0 Z " fill="#E3E0F5" transform="translate(1881,44)"/>
<path d="M0 0 C1.98 0 3.96 0 6 0 C5.91563067 2.86855713 5.41307819 4.55682315 3.4453125 6.66796875 C-1.51440024 11 -1.51440024 11 -4 11 C-4 10.34 -4 9.68 -4 9 C-2.7315625 7.824375 -2.7315625 7.824375 -1.4375 6.625 C-0.633125 5.75875 0.17125 4.8925 1 4 C0.95502158 1.72476911 0.95502158 1.72476911 0 0 Z " fill="#715FBD" transform="translate(38,47)"/>
<path d="M0 0 C0.33 0 0.66 0 1 0 C1 3.96 1 7.92 1 12 C0.34 12 -0.32 12 -1 12 C-1 11.01 -1 10.02 -1 9 C-2.98 9.66 -4.96 10.32 -7 11 C-6.34 9.02 -5.68 7.04 -5 5 C-3.35 5 -1.7 5 0 5 C0 3.35 0 1.7 0 0 Z " fill="#C2B2AC" transform="translate(50,40)"/>
<path d="M0 0 C1.32 1.32 2.64 2.64 4 4 C2.75 5.5625 2.75 5.5625 1 7 C-1.0625 6.9375 -1.0625 6.9375 -3 6 C-4.25 3.9375 -4.25 3.9375 -5 2 C-3.35 1.34 -1.7 0.68 0 0 Z " fill="#DCC095" transform="translate(36,47)"/>
<path d="M0 0 C0.66 0 1.32 0 2 0 C2 2.64 2 5.28 2 8 C2.66 7.67 3.32 7.34 4 7 C4.40729228 4.67843403 4.74438677 2.3431213 5 0 C5.66 0 6.32 0 7 0 C7.09765625 6.15234375 7.09765625 6.15234375 7 8 C6 9 6 9 3.5 9.125 C1 9 1 9 0 8 C-0.14115161 5.32941149 -0.04247107 2.67567762 0 0 Z " fill="#E5E2F6" transform="translate(990,148)"/>
<path d="M0 0 C0.66 0 1.32 0 2 0 C2 2.64 2 5.28 2 8 C2.66 7.67 3.32 7.34 4 7 C4.40729228 4.67843403 4.74438677 2.3431213 5 0 C5.66 0 6.32 0 7 0 C7.09765625 6.15234375 7.09765625 6.15234375 7 8 C6 9 6 9 3.5 9.125 C1 9 1 9 0 8 C-0.14115161 5.32941149 -0.04247107 2.67567762 0 0 Z " fill="#E5E2F6" transform="translate(763,148)"/>
<path d="M0 0 C0.66 0 1.32 0 2 0 C2.33 2.31 2.66 4.62 3 7 C2.01 7.33 1.02 7.66 0 8 C-0.33 7.01 -0.66 6.02 -1 5 C-1.99 5.33 -2.98 5.66 -4 6 C-3.01 6.66 -2.02 7.32 -1 8 C-2.65 8 -4.3 8 -6 8 C-5.67 6.02 -5.34 4.04 -5 2 C-3.35 2 -1.7 2 0 2 C0 1.34 0 0.68 0 0 Z " fill="#C6C0EC" transform="translate(123,57)"/>
<path d="M0 0 C0.99 0 1.98 0 3 0 C3 0.66 3 1.32 3 2 C3.99 2 4.98 2 6 2 C6 3.32 6 4.64 6 6 C4.35 6 2.7 6 1 6 C1 7.98 1 9.96 1 12 C0.67 12 0.34 12 0 12 C0 8.04 0 4.08 0 0 Z " fill="#998A7D" transform="translate(748,542)"/>
<path d="M0 0 C0.66 0 1.32 0 2 0 C2 1.98 2 3.96 2 6 C2.99 6 3.98 6 5 6 C5 4.02 5 2.04 5 0 C5.66 0 6.32 0 7 0 C7 2.64 7 5.28 7 8 C5.00045254 8.04254356 2.99958364 8.04080783 1 8 C0 7 0 7 -0.0625 3.4375 C-0.041875 2.303125 -0.02125 1.16875 0 0 Z " fill="#1F2A4E" transform="translate(739,542)"/>
<path d="M0 0 C0 3.63 0 7.26 0 11 C-0.99 11 -1.98 11 -3 11 C-4 4.375 -4 4.375 -4 1 C-2 0 -2 0 0 0 Z " fill="#4E4958" transform="translate(1023,482)"/>
<path d="M0 0 C0 3.63 0 7.26 0 11 C-0.99 11 -1.98 11 -3 11 C-4 4.375 -4 4.375 -4 1 C-2 0 -2 0 0 0 Z " fill="#4E4958" transform="translate(977,482)"/>
<path d="M0 0 C0.99 0 1.98 0 3 0 C3.33 0.99 3.66 1.98 4 3 C4.66 2.01 5.32 1.02 6 0 C6.66 0 7.32 0 8 0 C7.125 5.75 7.125 5.75 6 8 C4.68 8 3.36 8 2 8 C1.34 5.36 0.68 2.72 0 0 Z " fill="#464052" transform="translate(745,428)"/>
<path d="M0 0 C0.99 0 1.98 0 3 0 C3.33 0.99 3.66 1.98 4 3 C4.66 2.01 5.32 1.02 6 0 C6.66 0 7.32 0 8 0 C7.125 5.75 7.125 5.75 6 8 C4.68 8 3.36 8 2 8 C1.34 5.36 0.68 2.72 0 0 Z " fill="#464052" transform="translate(745,371)"/>
<path d="M0 0 C0 3.63 0 7.26 0 11 C-0.99 11 -1.98 11 -3 11 C-4 4.375 -4 4.375 -4 1 C-2 0 -2 0 0 0 Z " fill="#4E4958" transform="translate(1023,311)"/>
<path d="M0 0 C0 3.63 0 7.26 0 11 C-0.99 11 -1.98 11 -3 11 C-4 4.375 -4 4.375 -4 1 C-2 0 -2 0 0 0 Z " fill="#4E4958" transform="translate(977,311)"/>
<path d="M0 0 C0.99 0 1.98 0 3 0 C3 3.96 3 7.92 3 12 C2.01 12 1.02 12 0 12 C0 8.04 0 4.08 0 0 Z " fill="#56525B" transform="translate(749,310)"/>
<path d="M0 0 C0.99 0 1.98 0 3 0 C3 3.96 3 7.92 3 12 C2.01 12 1.02 12 0 12 C0 8.04 0 4.08 0 0 Z " fill="#56525B" transform="translate(749,253)"/>
<path d="M0 0 C0 3.63 0 7.26 0 11 C-0.99 11 -1.98 11 -3 11 C-4 4.375 -4 4.375 -4 1 C-2 0 -2 0 0 0 Z " fill="#4E4958" transform="translate(1023,197)"/>
<path d="M0 0 C0 3.63 0 7.26 0 11 C-0.99 11 -1.98 11 -3 11 C-4 4.375 -4 4.375 -4 1 C-2 0 -2 0 0 0 Z " fill="#4E4958" transform="translate(977,197)"/>
<path d="M0 0 C0.99 0 1.98 0 3 0 C3 3.96 3 7.92 3 12 C2.01 12 1.02 12 0 12 C0 8.04 0 4.08 0 0 Z " fill="#56525B" transform="translate(749,196)"/>
<path d="M0 0 C0.99 0 1.98 0 3 0 C4.37432457 3.81756824 3.67975039 7.07255329 3 11 C2.01 11 1.02 11 0 11 C0 7.37 0 3.74 0 0 Z " fill="#FBFBFD" transform="translate(122,32)"/>
<path d="M0 0 C-0.1875 1.8125 -0.1875 1.8125 -1 4 C-3.5625 5.75 -3.5625 5.75 -6 7 C-6 6.01 -6 5.02 -6 4 C-6.66 3.67 -7.32 3.34 -8 3 C-7.67 2.01 -7.34 1.02 -7 0 C-4.3333581 -1.33332095 -2.83319697 -0.67102033 0 0 Z " fill="#EAECEA" transform="translate(797,427)"/>
<path d="M0 0 C2.31 0 4.62 0 7 0 C6.32829194 3.8063457 5.27253436 7.35206816 4 11 C3.01 10.67 2.02 10.34 1 10 C1.99 7.69 2.98 5.38 4 3 C2.68 2.67 1.36 2.34 0 2 C0 1.34 0 0.68 0 0 Z " fill="#33374A" transform="translate(1123,368)"/>
<path d="M0 0 C2.31 0 4.62 0 7 0 C6.32829194 3.8063457 5.27253436 7.35206816 4 11 C3.01 10.67 2.02 10.34 1 10 C1.99 7.69 2.98 5.38 4 3 C2.68 2.67 1.36 2.34 0 2 C0 1.34 0 0.68 0 0 Z " fill="#33374A" transform="translate(990,311)"/>
<path d="M0 0 C1.32 0.33 2.64 0.66 4 1 C4.99 0.67 5.98 0.34 7 0 C6.34 2.97 5.68 5.94 5 9 C4.01 9 3.02 9 2 9 C1.34 6.03 0.68 3.06 0 0 Z " fill="#D9D5F2" transform="translate(998,148)"/>
<path d="M0 0 C0.99 0 1.98 0 3 0 C3 3.63 3 7.26 3 11 C2.01 11 1.02 11 0 11 C0 7.37 0 3.74 0 0 Z " fill="#56525B" transform="translate(800,197)"/>
<path d="M0 0 C1.65 0 3.3 0 5 0 C4.67 0.66 4.34 1.32 4 2 C3.34 1.67 2.68 1.34 2 1 C2.515625 1.5775 3.03125 2.155 3.5625 2.75 C5 5 5 5 4.6875 7.25 C4.460625 7.8275 4.23375 8.405 4 9 C2.35 9 0.7 9 -1 9 C-0.67 8.34 -0.34 7.68 0 7 C0.99 7.33 1.98 7.66 3 8 C2.319375 7.4225 1.63875 6.845 0.9375 6.25 C0.298125 5.5075 -0.34125 4.765 -1 4 C-0.75 1.75 -0.75 1.75 0 0 Z " fill="#DDDAF3" transform="translate(1114,148)"/>
<path d="M0 0 C-0.33 1.32 -0.66 2.64 -1 4 C-0.34 4 0.32 4 1 4 C0.67 4.99 0.34 5.98 0 7 C-1.65 6.67 -3.3 6.34 -5 6 C-5 4.35 -5 2.7 -5 1 C-3 0 -3 0 0 0 Z " fill="#F1F0FA" transform="translate(239,36)"/>
<path d="M0 0 C-0.33 1.32 -0.66 2.64 -1 4 C-0.34 4 0.32 4 1 4 C0.67 4.99 0.34 5.98 0 7 C-1.65 6.67 -3.3 6.34 -5 6 C-5 4.35 -5 2.7 -5 1 C-3 0 -3 0 0 0 Z " fill="#F1F0FA" transform="translate(114,36)"/>
<path d="M0 0 C0.33 0.66 0.66 1.32 1 2 C1.66 2 2.32 2 3 2 C3.0825 2.61875 3.165 3.2375 3.25 3.875 C3.81258459 6.18437567 3.81258459 6.18437567 6.0625 7.25 C6.701875 7.4975 7.34125 7.745 8 8 C7.360625 8.12375 6.72125 8.2475 6.0625 8.375 C5.381875 8.58125 4.70125 8.7875 4 9 C3.67 9.66 3.34 10.32 3 11 C2.67 9.68 2.34 8.36 2 7 C1.34 7 0.68 7 0 7 C0 4.69 0 2.38 0 0 Z " fill="#D4E2E8" transform="translate(1138,368)"/>
<path d="M0 0 C1.65 0.33 3.3 0.66 5 1 C4.875 2.875 4.875 2.875 4 5 C0.9375 6.25 0.9375 6.25 -2 7 C-2 5.35 -2 3.7 -2 2 C-1.34 2 -0.68 2 0 2 C0 1.34 0 0.68 0 0 Z " fill="#D9DDDE" transform="translate(1017,369)"/>
<path d="M0 0 C0.99 0 1.98 0 3 0 C3 3.63 3 7.26 3 11 C2.34 11 1.68 11 1 11 C0.67 9.35 0.34 7.7 0 6 C-0.33 6 -0.66 6 -1 6 C-1.042721 4.33388095 -1.04063832 2.66617115 -1 1 C-0.67 0.67 -0.34 0.34 0 0 Z " fill="#372F3E" transform="translate(824,311)"/>
<path d="M0 0 C0 0.99 0 1.98 0 3 C-3.06700251 3.93343555 -5.50719809 4.03969872 -8.6875 3.6875 C-9.47511719 3.60886719 -10.26273438 3.53023437 -11.07421875 3.44921875 C-11.70972656 3.30097656 -12.34523438 3.15273438 -13 3 C-13.33 2.34 -13.66 1.68 -14 1 C-9.38 0.67 -4.76 0.34 0 0 Z " fill="#747176" transform="translate(43,58)"/>
<path d="M0 0 C0.66 0 1.32 0 2 0 C2 0.66 2 1.32 2 2 C3.65 1.67 5.3 1.34 7 1 C7 1.66 7 2.32 7 3 C5.02 3.33 3.04 3.66 1 4 C1 5.32 1 6.64 1 8 C-0.98 8.99 -0.98 8.99 -3 10 C-2.01 6.7 -1.02 3.4 0 0 Z " fill="#7F72D4" transform="translate(108,33)"/>
<path d="M0 0 C-0.50603992 2.16874252 -0.99983813 3.99967627 -2 6 C-3.98 6 -5.96 6 -8 6 C-8 5.01 -8 4.02 -8 3 C-5.11165997 0.89229241 -3.61537605 0 0 0 Z " fill="#EFDAB2" transform="translate(29,32)"/>
<path d="M0 0 C1.98 0 3.96 0 6 0 C6 0.66 6 1.32 6 2 C5.01 2 4.02 2 3 2 C3 3.98 3 5.96 3 8 C2.01 8 1.02 8 0 8 C0 5.36 0 2.72 0 0 Z " fill="#504F56" transform="translate(763,428)"/>
<path d="M0 0 C1.98 0 3.96 0 6 0 C6 0.66 6 1.32 6 2 C5.01 2 4.02 2 3 2 C3 3.98 3 5.96 3 8 C2.01 8 1.02 8 0 8 C0 5.36 0 2.72 0 0 Z " fill="#504F56" transform="translate(763,371)"/>
<path d="M0 0 C0.66 0 1.32 0 2 0 C2 2.97 2 5.94 2 9 C3.32 9 4.64 9 6 9 C6 9.66 6 10.32 6 11 C4.02 11 2.04 11 0 11 C0 7.37 0 3.74 0 0 Z " fill="#1F2942" transform="translate(810,254)"/>
<path d="M0 0 C0.99 0 1.98 0 3 0 C3 2.64 3 5.28 3 8 C3.99 8.33 4.98 8.66 6 9 C4.02 9 2.04 9 0 9 C0 6.03 0 3.06 0 0 Z " fill="#D1CCEF" transform="translate(1134,148)"/>
<path d="M0 0 C0 3.63 0 7.26 0 11 C-0.66 11 -1.32 11 -2 11 C-2.33 8.69 -2.66 6.38 -3 4 C-3.66 4 -4.32 4 -5 4 C-4.67 3.01 -4.34 2.02 -4 1 C-2 0 -2 0 0 0 Z " fill="#303159" transform="translate(1156,311)"/>
<path d="M0 0 C0 3.63 0 7.26 0 11 C-0.66 11 -1.32 11 -2 11 C-2.33 8.69 -2.66 6.38 -3 4 C-3.66 4 -4.32 4 -5 4 C-4.67 3.01 -4.34 2.02 -4 1 C-2 0 -2 0 0 0 Z " fill="#303159" transform="translate(1110,311)"/>
<path d="M0 0 C0.33 0 0.66 0 1 0 C1 1.65 1 3.3 1 5 C-0.65 5.33 -2.3 5.66 -4 6 C-4 7.32 -4 8.64 -4 10 C-4.66 10 -5.32 10 -6 10 C-6 7.03 -6 4.06 -6 1 C-5.67 1.99 -5.34 2.98 -5 4 C-3.68 4 -2.36 4 -1 4 C-0.67 2.68 -0.34 1.36 0 0 Z " fill="#1F3855" transform="translate(837,312)"/>
<path d="M0 0 C0 3.63 0 7.26 0 11 C-0.66 11 -1.32 11 -2 11 C-2.33 8.69 -2.66 6.38 -3 4 C-3.66 4 -4.32 4 -5 4 C-4.67 3.01 -4.34 2.02 -4 1 C-2 0 -2 0 0 0 Z " fill="#303159" transform="translate(1156,197)"/>
<path d="M0 0 C0 3.63 0 7.26 0 11 C-0.66 11 -1.32 11 -2 11 C-2.33 8.69 -2.66 6.38 -3 4 C-3.66 4 -4.32 4 -5 4 C-4.67 3.01 -4.34 2.02 -4 1 C-2 0 -2 0 0 0 Z " fill="#303159" transform="translate(1110,197)"/>
<path d="M0 0 C1.24546405 2.49092811 0.7767578 3.41080733 0 6 C-2.31 6.33 -4.62 6.66 -7 7 C-7.33 5.02 -7.66 3.04 -8 1 C-7.67 1.66 -7.34 2.32 -7 3 C-5.02 3 -3.04 3 -1 3 C-0.67 2.01 -0.34 1.02 0 0 Z " fill="#8A704D" transform="translate(28,35)"/>
<path d="M0 0 C0.33 0.66 0.66 1.32 1 2 C2.65 1.67 4.3 1.34 6 1 C6 1.66 6 2.32 6 3 C4.02 3.33 2.04 3.66 0 4 C-0.33 5.98 -0.66 7.96 -1 10 C-1.33 10 -1.66 10 -2 10 C-2 7.03 -2 4.06 -2 1 C-1.34 0.67 -0.68 0.34 0 0 Z " fill="#8D80D8" transform="translate(234,33)"/>
<path d="M0 0 C0.99 0 1.98 0 3 0 C3 1.98 3 3.96 3 6 C0.36 5.67 -2.28 5.34 -5 5 C-4.67 4.01 -4.34 3.02 -4 2 C-2.68 2 -1.36 2 0 2 C0 1.34 0 0.68 0 0 Z " fill="#D8DBD7" transform="translate(1006,311)"/>
<path d="M0 0 C1.32 0 2.64 0 4 0 C4 0.66 4 1.32 4 2 C3.01 2.33 2.02 2.66 1 3 C1 3.66 1 4.32 1 5 C1.99 5.33 2.98 5.66 4 6 C4 6.66 4 7.32 4 8 C2.35 7.67 0.7 7.34 -1 7 C-1.625 4.625 -1.625 4.625 -2 2 C-1.34 1.34 -0.68 0.68 0 0 Z " fill="#352C3C" transform="translate(829,257)"/>
<path d="M0 0 C0.99 0 1.98 0 3 0 C3 1.98 3 3.96 3 6 C0.36 5.67 -2.28 5.34 -5 5 C-4.67 4.01 -4.34 3.02 -4 2 C-2.68 2 -1.36 2 0 2 C0 1.34 0 0.68 0 0 Z " fill="#D8DBD7" transform="translate(1006,197)"/>
<path d="M0 0 C1.67542976 0.28604898 3.34385343 0.61781233 5 1 C5 3.64 5 6.28 5 9 C4.67 9 4.34 9 4 9 C4 7.02 4 5.04 4 3 C2.68 2.67 1.36 2.34 0 2 C0 3.98 0 5.96 0 8 C-2 5 -2 5 -1.6875 2.875 C-1 1 -1 1 0 0 Z " fill="#273050" transform="translate(804,425)"/>
<path d="M0 0 C1.67542976 0.28604898 3.34385343 0.61781233 5 1 C5 3.64 5 6.28 5 9 C4.67 9 4.34 9 4 9 C4 7.02 4 5.04 4 3 C2.68 2.67 1.36 2.34 0 2 C0 3.98 0 5.96 0 8 C-2 5 -2 5 -1.6875 2.875 C-1 1 -1 1 0 0 Z " fill="#273050" transform="translate(992,368)"/>
<path d="M0 0 C0.33 0 0.66 0 1 0 C1 1.98 1 3.96 1 6 C2.32 6.33 3.64 6.66 5 7 C4.67 7.66 4.34 8.32 4 9 C1.4375 9.625 1.4375 9.625 -1 10 C-2.25 3.375 -2.25 3.375 0 0 Z " fill="#DFDBD2" transform="translate(1132,311)"/>
<path d="M0 0 C1.67542976 0.28604898 3.34385343 0.61781233 5 1 C5 3.64 5 6.28 5 9 C4.67 9 4.34 9 4 9 C4 7.02 4 5.04 4 3 C2.68 2.67 1.36 2.34 0 2 C0 3.98 0 5.96 0 8 C-2 5 -2 5 -1.6875 2.875 C-1 1 -1 1 0 0 Z " fill="#273050" transform="translate(798,311)"/>
<path d="M0 0 C1.67542976 0.28604898 3.34385343 0.61781233 5 1 C5 3.64 5 6.28 5 9 C4.67 9 4.34 9 4 9 C4 7.02 4 5.04 4 3 C2.68 2.67 1.36 2.34 0 2 C0 3.98 0 5.96 0 8 C-2 5 -2 5 -1.6875 2.875 C-1 1 -1 1 0 0 Z " fill="#273050" transform="translate(798,254)"/>
<path d="M0 0 C1.32 0 2.64 0 4 0 C3.34 3.63 2.68 7.26 2 11 C1.34 11 0.68 11 0 11 C0 7.37 0 3.74 0 0 Z " fill="#624A38" transform="translate(805,197)"/>
<path d="M0 0 C1.67542976 0.28604898 3.34385343 0.61781233 5 1 C5 3.64 5 6.28 5 9 C4.67 9 4.34 9 4 9 C4 7.02 4 5.04 4 3 C2.68 2.67 1.36 2.34 0 2 C0 3.98 0 5.96 0 8 C-2 5 -2 5 -1.6875 2.875 C-1 1 -1 1 0 0 Z " fill="#273050" transform="translate(1125,197)"/>
<path d="M0 0 C1.65 0 3.3 0 5 0 C4.01 0.33 3.02 0.66 2 1 C2 1.99 2 2.98 2 4 C2.99 4.33 3.98 4.66 5 5 C4.01 5 3.02 5 2 5 C2 5.99 2 6.98 2 8 C2.99 8.33 3.98 8.66 5 9 C3.35 9 1.7 9 0 9 C0 6.03 0 3.06 0 0 Z " fill="#E7E4F7" transform="translate(1121,148)"/>
<path d="M0 0 C0.99 0 1.98 0 3 0 C2.67 3.63 2.34 7.26 2 11 C1.34 11 0.68 11 0 11 C0 7.37 0 3.74 0 0 Z " fill="#232C4E" transform="translate(815,311)"/>
<path d="M0 0 C0.99 0 1.98 0 3 0 C3 0.99 3 1.98 3 3 C3.99 3 4.98 3 6 3 C6 2.01 6 1.02 6 0 C6.66 0 7.32 0 8 0 C8 1.32 8 2.64 8 4 C5.125 4.625 5.125 4.625 2 5 C1.34 4.34 0.68 3.68 0 3 C0 2.01 0 1.02 0 0 Z " fill="#323C53" transform="translate(786,260)"/>
<path d="M0 0 C0.66 0.33 1.32 0.66 2 1 C1.67 2.65 1.34 4.3 1 6 C-0.65 6 -2.3 6 -4 6 C-4.33 4.35 -4.66 2.7 -5 1 C-4.34 1 -3.68 1 -3 1 C-3 1.99 -3 2.98 -3 4 C-2.01 4 -1.02 4 0 4 C0 2.68 0 1.36 0 0 Z " fill="#302F4B" transform="translate(995,487)"/>
<path d="M0 0 C1.32 0 2.64 0 4 0 C4 0.66 4 1.32 4 2 C3.01 2 2.02 2 1 2 C1 3.32 1 4.64 1 6 C1.99 6.33 2.98 6.66 4 7 C2.0625 7.5625 2.0625 7.5625 0 8 C-1 7 -1 7 -1.125 4 C-1 1 -1 1 0 0 Z " fill="#302F42" transform="translate(755,314)"/>
<path d="M0 0 C1.32 0 2.64 0 4 0 C4 0.66 4 1.32 4 2 C3.01 2 2.02 2 1 2 C1 3.32 1 4.64 1 6 C1.99 6.33 2.98 6.66 4 7 C2.0625 7.5625 2.0625 7.5625 0 8 C-1 7 -1 7 -1.125 4 C-1 1 -1 1 0 0 Z " fill="#302F42" transform="translate(755,257)"/>
<path d="M0 0 C0.66 0.33 1.32 0.66 2 1 C1.67 2.65 1.34 4.3 1 6 C-0.65 6 -2.3 6 -4 6 C-4.33 4.35 -4.66 2.7 -5 1 C-4.34 1 -3.68 1 -3 1 C-3 1.99 -3 2.98 -3 4 C-2.01 4 -1.02 4 0 4 C0 2.68 0 1.36 0 0 Z " fill="#302F4B" transform="translate(995,202)"/>
<path d="M0 0 C1.32 0 2.64 0 4 0 C4 0.66 4 1.32 4 2 C3.01 2 2.02 2 1 2 C1 3.32 1 4.64 1 6 C1.99 6.33 2.98 6.66 4 7 C2.0625 7.5625 2.0625 7.5625 0 8 C-1 7 -1 7 -1.125 4 C-1 1 -1 1 0 0 Z " fill="#302F42" transform="translate(755,200)"/>
<path d="M0 0 C1.65 0 3.3 0 5 0 C5.33 0.99 5.66 1.98 6 3 C5.67 3.66 5.34 4.32 5 5 C3.68 5 2.36 5 1 5 C0.67 3.35 0.34 1.7 0 0 Z " fill="#6E717A" transform="translate(822,197)"/>
<path d="M0 0 C2.46800047 1.15173355 4.04783565 2.04783565 6 4 C6.125 7.625 6.125 7.625 6 11 C5.67 11 5.34 11 5 11 C4.34 8.69 3.68 6.38 3 4 C2.01 4.99 1.02 5.98 0 7 C0 4.69 0 2.38 0 0 Z " fill="#E3E0F5" transform="translate(1882,37)"/>
<path d="M0 0 C1.32 0.33 2.64 0.66 4 1 C3.3125 3.4375 3.3125 3.4375 2 6 C-0.625 6.8125 -0.625 6.8125 -3 7 C-1.125 2.25 -1.125 2.25 0 0 Z " fill="#E4E2F6" transform="translate(105,32)"/>
<path d="M0 0 C1.98 0 3.96 0 6 0 C6.33 1.65 6.66 3.3 7 5 C6.34 4.67 5.68 4.34 5 4 C5 3.34 5 2.68 5 2 C4.01 2 3.02 2 2 2 C2 2.99 2 3.98 2 5 C1.34 5 0.68 5 0 5 C0 3.35 0 1.7 0 0 Z " fill="#1F2E4E" transform="translate(729,539)"/>
<path d="M0 0 C1.98 0 3.96 0 6 0 C6.33 1.65 6.66 3.3 7 5 C6.34 4.67 5.68 4.34 5 4 C5 3.34 5 2.68 5 2 C4.01 2 3.02 2 2 2 C2 2.99 2 3.98 2 5 C1.34 5 0.68 5 0 5 C0 3.35 0 1.7 0 0 Z " fill="#1F2E4E" transform="translate(729,482)"/>
<path d="M0 0 C0.66 0 1.32 0 2 0 C2.33 3.63 2.66 7.26 3 11 C2.01 11 1.02 11 0 11 C0 7.37 0 3.74 0 0 Z " fill="#244B75" transform="translate(828,425)"/>
<path d="M0 0 C0.99 0 1.98 0 3 0 C3 2.31 3 4.62 3 7 C2.67 7 2.34 7 2 7 C1.67 5.68 1.34 4.36 1 3 C1 4.32 1 5.64 1 7 C0.01 6.67 -0.98 6.34 -2 6 C-2 3 -2 3 0 0 Z " fill="#747A89" transform="translate(1136,197)"/>
<path d="M0 0 C1.65 0 3.3 0 5 0 C4.67 0.66 4.34 1.32 4 2 C3.34 1.67 2.68 1.34 2 1 C2 1.99 2 2.98 2 4 C2.66 4.33 3.32 4.66 4 5 C3.34 5 2.68 5 2 5 C2 6.32 2 7.64 2 9 C1.34 9 0.68 9 0 9 C0 6.03 0 3.06 0 0 Z " fill="#E7E4F6" transform="translate(728,148)"/>
<path d="M0 0 C1.32 0 2.64 0 4 0 C4 1.98 4 3.96 4 6 C2.35 6 0.7 6 -1 6 C-0.67 4.02 -0.34 2.04 0 0 Z " fill="#C1BBEA" transform="translate(101,59)"/>
<path d="M0 0 C1.65 0 3.3 0 5 0 C4.67 0.66 4.34 1.32 4 2 C3.34 1.67 2.68 1.34 2 1 C2 1.99 2 2.98 2 4 C2.66 4.33 3.32 4.66 4 5 C3.34 5 2.68 5 2 5 C2 6.32 2 7.64 2 9 C1.34 9 0.68 9 0 9 C0 6.03 0 3.06 0 0 Z " fill="#C3BDEB" transform="translate(130,56)"/>
<path d="M0 0 C1.9375 0.6875 1.9375 0.6875 4 2 C4.75 4.625 4.75 4.625 5 7 C3.68 6.67 2.36 6.34 1 6 C0.67 4.02 0.34 2.04 0 0 Z " fill="#624C2F" transform="translate(37,26)"/>
<path d="M0 0 C1.65 0 3.3 0 5 0 C5.33 1.32 5.66 2.64 6 4 C3 6 3 6 0.8125 5.625 C0.214375 5.41875 -0.38375 5.2125 -1 5 C0.65 4.67 2.3 4.34 4 4 C4 3.34 4 2.68 4 2 C2.68 2 1.36 2 0 2 C0 1.34 0 0.68 0 0 Z " fill="#3C3F56" transform="translate(834,425)"/>
<path d="M0 0 C0.33 0 0.66 0 1 0 C1.125 2.875 1.125 2.875 1 6 C0.34 6.66 -0.32 7.32 -1 8 C-2.32 8 -3.64 8 -5 8 C-5 7.34 -5 6.68 -5 6 C-4.01 5.34 -3.02 4.68 -2 4 C-2 3.34 -2 2.68 -2 2 C-1.34 2 -0.68 2 0 2 C0 1.34 0 0.68 0 0 Z " fill="#34363F" transform="translate(1023,542)"/>
<path d="M0 0 C0.33 0 0.66 0 1 0 C1 1.98 1 3.96 1 6 C3.31 6 5.62 6 8 6 C7.67 6.99 7.34 7.98 7 9 C5.35 9 3.7 9 2 9 C2 8.34 2 7.68 2 7 C1.34 7 0.68 7 0 7 C0 4.69 0 2.38 0 0 Z " fill="#C0DBE9" transform="translate(1005,539)"/>
<path d="M0 0 C0.33 0.99 0.66 1.98 1 3 C2.65 3 4.3 3 6 3 C6 3.66 6 4.32 6 5 C3.36 5 0.72 5 -2 5 C-1.125 1.125 -1.125 1.125 0 0 Z " fill="#413F49" transform="translate(794,431)"/>
<path d="M0 0 C0.33 0 0.66 0 1 0 C1 2.97 1 5.94 1 9 C0.38125 8.360625 -0.2375 7.72125 -0.875 7.0625 C-2.82597612 4.96116416 -2.82597612 4.96116416 -5 4 C-5 3.34 -5 2.68 -5 2 C-3.68 2 -2.36 2 -1 2 C-0.67 1.34 -0.34 0.68 0 0 Z " fill="#CAE7FA" transform="translate(735,425)"/>
<path d="M0 0 C0.33 0.99 0.66 1.98 1 3 C2.65 3 4.3 3 6 3 C6 3.66 6 4.32 6 5 C3.36 5 0.72 5 -2 5 C-1.125 1.125 -1.125 1.125 0 0 Z " fill="#413F49" transform="translate(1152,374)"/>
<path d="M0 0 C0.33 0 0.66 0 1 0 C1.125 2.875 1.125 2.875 1 6 C0.34 6.66 -0.32 7.32 -1 8 C-2.32 8 -3.64 8 -5 8 C-5 7.34 -5 6.68 -5 6 C-4.01 5.34 -3.02 4.68 -2 4 C-2 3.34 -2 2.68 -2 2 C-1.34 2 -0.68 2 0 2 C0 1.34 0 0.68 0 0 Z " fill="#34363F" transform="translate(1147,371)"/>
<path d="M0 0 C0.33 0.99 0.66 1.98 1 3 C2.65 3 4.3 3 6 3 C6 3.66 6 4.32 6 5 C3.36 5 0.72 5 -2 5 C-1.125 1.125 -1.125 1.125 0 0 Z " fill="#413F49" transform="translate(1106,374)"/>
<path d="M0 0 C0.99 0.33 1.98 0.66 3 1 C3 1.66 3 2.32 3 3 C3.99 3 4.98 3 6 3 C6 3.99 6 4.98 6 6 C4.35 6.33 2.7 6.66 1 7 C0.67 4.69 0.34 2.38 0 0 Z " fill="#DEEDF1" transform="translate(997,371)"/>
<path d="M0 0 C0.33 0 0.66 0 1 0 C1 2.97 1 5.94 1 9 C0.38125 8.360625 -0.2375 7.72125 -0.875 7.0625 C-2.82597612 4.96116416 -2.82597612 4.96116416 -5 4 C-5 3.34 -5 2.68 -5 2 C-3.68 2 -2.36 2 -1 2 C-0.67 1.34 -0.34 0.68 0 0 Z " fill="#CAE7FA" transform="translate(735,368)"/>
<path d="M0 0 C0.33 0.99 0.66 1.98 1 3 C2.65 3 4.3 3 6 3 C6 3.66 6 4.32 6 5 C3.36 5 0.72 5 -2 5 C-1.125 1.125 -1.125 1.125 0 0 Z " fill="#413F49" transform="translate(788,317)"/>
<path d="M0 0 C0.33 0 0.66 0 1 0 C1.125 2.875 1.125 2.875 1 6 C0.34 6.66 -0.32 7.32 -1 8 C-2.32 8 -3.64 8 -5 8 C-5 7.34 -5 6.68 -5 6 C-4.01 5.34 -3.02 4.68 -2 4 C-2 3.34 -2 2.68 -2 2 C-1.34 2 -0.68 2 0 2 C0 1.34 0 0.68 0 0 Z " fill="#34363F" transform="translate(783,314)"/>
<path d="M0 0 C0.66 1.32 1.32 2.64 2 4 C3.32 4 4.64 4 6 4 C5.67 4.99 5.34 5.98 5 7 C3.68 7 2.36 7 1 7 C0.67 7.66 0.34 8.32 0 9 C-0.84454356 5.62182575 -1.10844919 3.32534757 0 0 Z " fill="#F6E9CF" transform="translate(1122,313)"/>
<path d="M0 0 C0.33 0 0.66 0 1 0 C1.125 2.875 1.125 2.875 1 6 C0.34 6.66 -0.32 7.32 -1 8 C-2.32 8 -3.64 8 -5 8 C-5 7.34 -5 6.68 -5 6 C-4.01 5.34 -3.02 4.68 -2 4 C-2 3.34 -2 2.68 -2 2 C-1.34 2 -0.68 2 0 2 C0 1.34 0 0.68 0 0 Z " fill="#34363F" transform="translate(783,257)"/>
<path d="M0 0 C0.33 0 0.66 0 1 0 C1.125 2.875 1.125 2.875 1 6 C0.34 6.66 -0.32 7.32 -1 8 C-2.32 8 -3.64 8 -5 8 C-5 7.34 -5 6.68 -5 6 C-4.01 5.34 -3.02 4.68 -2 4 C-2 3.34 -2 2.68 -2 2 C-1.34 2 -0.68 2 0 2 C0 1.34 0 0.68 0 0 Z " fill="#34363F" transform="translate(783,200)"/>
<path d="M0 0 C0.66 0 1.32 0 2 0 C2.99 2.64 3.98 5.28 5 8 C4.01 8 3.02 8 2 8 C1.67 7.34 1.34 6.68 1 6 C0.34 6.66 -0.32 7.32 -1 8 C-0.67 5.36 -0.34 2.72 0 0 Z " fill="#C3BDEB" transform="translate(738,149)"/>
<path d="M0 0 C0.33 0 0.66 0 1 0 C1.125 2.375 1.125 2.375 1 5 C-1 7 -1 7 -3.625 7.125 C-4.40875 7.08375 -5.1925 7.0425 -6 7 C-6 6.34 -6 5.68 -6 5 C-5.38125 4.9175 -4.7625 4.835 -4.125 4.75 C-1.81562433 4.18741541 -1.81562433 4.18741541 -0.75 1.9375 C-0.5025 1.298125 -0.255 0.65875 0 0 Z " fill="#372F41" transform="translate(1014,543)"/>
<path d="M0 0 C0.99 0.33 1.98 0.66 3 1 C2.01 1.495 2.01 1.495 1 2 C2.32 2.33 3.64 2.66 5 3 C5 3.66 5 4.32 5 5 C2.69 5 0.38 5 -2 5 C-1.125 1.125 -1.125 1.125 0 0 Z " fill="#212942" transform="translate(992,545)"/>
<path d="M0 0 C2.31 0 4.62 0 7 0 C7 0.66 7 1.32 7 2 C5 3.625 5 3.625 3 5 C2.01 4.34 1.02 3.68 0 3 C0 2.01 0 1.02 0 0 Z " fill="#3A2E37" transform="translate(962,539)"/>
<path d="M0 0 C2.31 0 4.62 0 7 0 C7 0.66 7 1.32 7 2 C5 3.625 5 3.625 3 5 C2.01 4.34 1.02 3.68 0 3 C0 2.01 0 1.02 0 0 Z " fill="#3A2E37" transform="translate(962,482)"/>
<path d="M0 0 C0.33 0 0.66 0 1 0 C1.125 2.375 1.125 2.375 1 5 C-1 7 -1 7 -3.625 7.125 C-4.40875 7.08375 -5.1925 7.0425 -6 7 C-6 6.34 -6 5.68 -6 5 C-5.38125 4.9175 -4.7625 4.835 -4.125 4.75 C-1.81562433 4.18741541 -1.81562433 4.18741541 -0.75 1.9375 C-0.5025 1.298125 -0.255 0.65875 0 0 Z " fill="#372F41" transform="translate(780,429)"/>
<path d="M0 0 C0.33 0 0.66 0 1 0 C1.125 2.375 1.125 2.375 1 5 C-1 7 -1 7 -3.625 7.125 C-4.40875 7.08375 -5.1925 7.0425 -6 7 C-6 6.34 -6 5.68 -6 5 C-5.38125 4.9175 -4.7625 4.835 -4.125 4.75 C-1.81562433 4.18741541 -1.81562433 4.18741541 -0.75 1.9375 C-0.5025 1.298125 -0.255 0.65875 0 0 Z " fill="#372F41" transform="translate(1014,372)"/>
<path d="M0 0 C0.33 0 0.66 0 1 0 C1.125 2.375 1.125 2.375 1 5 C-1 7 -1 7 -3.625 7.125 C-4.40875 7.08375 -5.1925 7.0425 -6 7 C-6 6.34 -6 5.68 -6 5 C-5.38125 4.9175 -4.7625 4.835 -4.125 4.75 C-1.81562433 4.18741541 -1.81562433 4.18741541 -0.75 1.9375 C-0.5025 1.298125 -0.255 0.65875 0 0 Z " fill="#372F41" transform="translate(780,372)"/>
<path d="M0 0 C2.475 0.495 2.475 0.495 5 1 C4.67 2.32 4.34 3.64 4 5 C2.68 5.33 1.36 5.66 0 6 C0 4.02 0 2.04 0 0 Z " fill="#F7ECE1" transform="translate(1150,369)"/>
<path d="M0 0 C2.31 0 4.62 0 7 0 C7 0.66 7 1.32 7 2 C5 3.625 5 3.625 3 5 C2.01 4.34 1.02 3.68 0 3 C0 2.01 0 1.02 0 0 Z " fill="#3A2E37" transform="translate(962,368)"/>
<path d="M0 0 C0.33 0 0.66 0 1 0 C1.125 2.375 1.125 2.375 1 5 C-1 7 -1 7 -3.625 7.125 C-4.40875 7.08375 -5.1925 7.0425 -6 7 C-6 6.34 -6 5.68 -6 5 C-5.38125 4.9175 -4.7625 4.835 -4.125 4.75 C-1.81562433 4.18741541 -1.81562433 4.18741541 -0.75 1.9375 C-0.5025 1.298125 -0.255 0.65875 0 0 Z " fill="#372F41" transform="translate(774,315)"/>
<path d="M0 0 C0.99 0.66 1.98 1.32 3 2 C2.67 3.32 2.34 4.64 2 6 C0.02 5.34 -1.96 4.68 -4 4 C-4 3.34 -4 2.68 -4 2 C-2.68 2 -1.36 2 0 2 C0 1.34 0 0.68 0 0 Z " fill="#E5F7FD" transform="translate(1120,311)"/>
<path d="M0 0 C2.475 0.495 2.475 0.495 5 1 C4.67 2.32 4.34 3.64 4 5 C2.68 5.33 1.36 5.66 0 6 C0 4.02 0 2.04 0 0 Z " fill="#F7ECE1" transform="translate(786,312)"/>
<path d="M0 0 C2.31 0 4.62 0 7 0 C7 0.66 7 1.32 7 2 C5 3.625 5 3.625 3 5 C2.01 4.34 1.02 3.68 0 3 C0 2.01 0 1.02 0 0 Z " fill="#3A2E37" transform="translate(962,311)"/>
<path d="M0 0 C-0.33 0.99 -0.66 1.98 -1 3 C-3.64 3.33 -6.28 3.66 -9 4 C-8.67 3.01 -8.34 2.02 -8 1 C-5.29120665 -0.35439668 -2.99066732 -0.06501451 0 0 Z " fill="#3F3A4F" transform="translate(737,311)"/>
<path d="M0 0 C0.33 0 0.66 0 1 0 C1.125 2.375 1.125 2.375 1 5 C-1 7 -1 7 -3.625 7.125 C-4.40875 7.08375 -5.1925 7.0425 -6 7 C-6 6.34 -6 5.68 -6 5 C-5.38125 4.9175 -4.7625 4.835 -4.125 4.75 C-1.81562433 4.18741541 -1.81562433 4.18741541 -0.75 1.9375 C-0.5025 1.298125 -0.255 0.65875 0 0 Z " fill="#372F41" transform="translate(774,258)"/>
<path d="M0 0 C-0.33 0.99 -0.66 1.98 -1 3 C-3.64 3.33 -6.28 3.66 -9 4 C-8.67 3.01 -8.34 2.02 -8 1 C-5.29120665 -0.35439668 -2.99066732 -0.06501451 0 0 Z " fill="#3F3A4F" transform="translate(737,254)"/>
<path d="M0 0 C0.33 0 0.66 0 1 0 C1.125 2.375 1.125 2.375 1 5 C-1 7 -1 7 -3.625 7.125 C-4.40875 7.08375 -5.1925 7.0425 -6 7 C-6 6.34 -6 5.68 -6 5 C-5.38125 4.9175 -4.7625 4.835 -4.125 4.75 C-1.81562433 4.18741541 -1.81562433 4.18741541 -0.75 1.9375 C-0.5025 1.298125 -0.255 0.65875 0 0 Z " fill="#372F41" transform="translate(774,201)"/>
<path d="M0 0 C2.31 0 4.62 0 7 0 C7 0.66 7 1.32 7 2 C5 3.625 5 3.625 3 5 C2.01 4.34 1.02 3.68 0 3 C0 2.01 0 1.02 0 0 Z " fill="#3A2E37" transform="translate(962,197)"/>
<path d="M0 0 C-0.33 0.99 -0.66 1.98 -1 3 C-3.64 3.33 -6.28 3.66 -9 4 C-8.67 3.01 -8.34 2.02 -8 1 C-5.29120665 -0.35439668 -2.99066732 -0.06501451 0 0 Z " fill="#3F3A4F" transform="translate(737,197)"/>
<path d="M0 0 C1.32 0 2.64 0 4 0 C4 0.99 4 1.98 4 3 C3.01 3.33 2.02 3.66 1 4 C1.99 4.66 2.98 5.32 4 6 C2.35 5.67 0.7 5.34 -1 5 C-0.67 3.35 -0.34 1.7 0 0 Z " fill="#CAC4ED" transform="translate(81,59)"/>
<path d="M0 0 C1.98 0.495 1.98 0.495 4 1 C3.67 2.32 3.34 3.64 3 5 C1.68 4.67 0.36 4.34 -1 4 C-0.67 2.68 -0.34 1.36 0 0 Z " fill="#8A7DD7" transform="translate(271,35)"/>
<path d="M0 0 C0.33 0 0.66 0 1 0 C1 2.64 1 5.28 1 8 C-0.32 8 -1.64 8 -3 8 C-3 6.68 -3 5.36 -3 4 C-2.01 3.67 -1.02 3.34 0 3 C0 2.01 0 1.02 0 0 Z " fill="#D8D5C7" transform="translate(821,425)"/>
<path d="M0 0 C0.99 0.66 1.98 1.32 3 2 C2.67 3.32 2.34 4.64 2 6 C0.68 6.33 -0.64 6.66 -2 7 C-2 6.34 -2 5.68 -2 5 C-1.34 5 -0.68 5 0 5 C-0.2784375 4.0409375 -0.2784375 4.0409375 -0.5625 3.0625 C-0.7790625 2.0415625 -0.7790625 2.0415625 -1 1 C-0.67 0.67 -0.34 0.34 0 0 Z " fill="#313B57" transform="translate(1004,315)"/>
<path d="M0 0 C0.99 0.66 1.98 1.32 3 2 C2.67 3.32 2.34 4.64 2 6 C0.68 6.33 -0.64 6.66 -2 7 C-2 6.34 -2 5.68 -2 5 C-1.34 5 -0.68 5 0 5 C-0.2784375 4.0409375 -0.2784375 4.0409375 -0.5625 3.0625 C-0.7790625 2.0415625 -0.7790625 2.0415625 -1 1 C-0.67 0.67 -0.34 0.34 0 0 Z " fill="#313B57" transform="translate(1004,201)"/>
<path d="M0 0 C0.350625 0.515625 0.70125 1.03125 1.0625 1.5625 C-1.5775 1.8925 -4.2175 2.2225 -6.9375 2.5625 C-7.5975 1.5725 -8.2575 0.5825 -8.9375 -0.4375 C-2.41442308 -1.79134615 -2.41442308 -1.79134615 0 0 Z " fill="#BEA379" transform="translate(33.9375,44.4375)"/>
<path d="M0 0 C1.65 1.65 3.3 3.3 5 5 C2.36 5 -0.28 5 -3 5 C-3 4.34 -3 3.68 -3 3 C-2.01 2.67 -1.02 2.34 0 2 C0 1.34 0 0.68 0 0 Z " fill="#AA8E6A" transform="translate(45,32)"/>
<path d="M0 0 C0.66 0 1.32 0 2 0 C2 2.31 2 4.62 2 7 C1.01 6.67 0.02 6.34 -1 6 C-1.042721 4.33388095 -1.04063832 2.66617115 -1 1 C-0.67 0.67 -0.34 0.34 0 0 Z " fill="#E3ECE3" transform="translate(1011,484)"/>
<path d="M0 0 C0.66 0 1.32 0 2 0 C2 2.31 2 4.62 2 7 C1.01 6.67 0.02 6.34 -1 6 C-1.042721 4.33388095 -1.04063832 2.66617115 -1 1 C-0.67 0.67 -0.34 0.34 0 0 Z " fill="#E3ECE3" transform="translate(1002,484)"/>
<path d="M0 0 C0.99 0.33 1.98 0.66 3 1 C3 2.65 3 4.3 3 6 C2.01 6.33 1.02 6.66 0 7 C0 4.69 0 2.38 0 0 Z " fill="#DDF0E9" transform="translate(804,427)"/>
<path d="M0 0 C0.99 0.33 1.98 0.66 3 1 C3 2.65 3 4.3 3 6 C2.01 6.33 1.02 6.66 0 7 C0 4.69 0 2.38 0 0 Z " fill="#DDF0E9" transform="translate(992,370)"/>
<path d="M0 0 C0.99 0.33 1.98 0.66 3 1 C3 2.65 3 4.3 3 6 C2.01 6.33 1.02 6.66 0 7 C0 4.69 0 2.38 0 0 Z " fill="#DDF0E9" transform="translate(798,313)"/>
<path d="M0 0 C1.98 0.495 1.98 0.495 4 1 C3.34 2.32 2.68 3.64 2 5 C1.01 5 0.02 5 -1 5 C-0.67 3.35 -0.34 1.7 0 0 Z " fill="#7B828D" transform="translate(1126,311)"/>
<path d="M0 0 C0.99 0.33 1.98 0.66 3 1 C3 2.65 3 4.3 3 6 C2.01 6.33 1.02 6.66 0 7 C0 4.69 0 2.38 0 0 Z " fill="#DDF0E9" transform="translate(798,256)"/>
<path d="M0 0 C1.65 0.33 3.3 0.66 5 1 C5 2.32 5 3.64 5 5 C4.67 4.01 4.34 3.02 4 2 C3.01 2 2.02 2 1 2 C1 2.66 1 3.32 1 4 C0.34 4 -0.32 4 -1 4 C-0.67 2.68 -0.34 1.36 0 0 Z " fill="#283351" transform="translate(788,254)"/>
<path d="M0 0 C0.99 0.33 1.98 0.66 3 1 C3 2.65 3 4.3 3 6 C2.01 6.33 1.02 6.66 0 7 C0 4.69 0 2.38 0 0 Z " fill="#DDF0E9" transform="translate(1125,199)"/>
<path d="M0 0 C0.99 0.33 1.98 0.66 3 1 C3 2.65 3 4.3 3 6 C2.01 6.33 1.02 6.66 0 7 C0 4.69 0 2.38 0 0 Z " fill="#7466D0" transform="translate(756,149)"/>
<path d="M0 0 C0.66 0 1.32 0 2 0 C2 2.31 2 4.62 2 7 C1.01 6.67 0.02 6.34 -1 6 C-1.042721 4.33388095 -1.04063832 2.66617115 -1 1 C-0.67 0.67 -0.34 0.34 0 0 Z " fill="#7060CF" transform="translate(747,149)"/>
<path d="M0 0 C1.66666667 0 3.33333333 0 5 0 C4.67 1.65 4.34 3.3 4 5 C2.68 4.67 1.36 4.34 0 4 C0 2.68 0 1.36 0 0 Z " fill="#8C7D75" transform="translate(1017,541)"/>
<path d="M0 0 C1.66666667 0 3.33333333 0 5 0 C4.67 1.65 4.34 3.3 4 5 C2.68 4.67 1.36 4.34 0 4 C0 2.68 0 1.36 0 0 Z " fill="#8C7D75" transform="translate(1141,370)"/>
<path d="M0 0 C1.66666667 0 3.33333333 0 5 0 C4.67 1.65 4.34 3.3 4 5 C2.68 4.67 1.36 4.34 0 4 C0 2.68 0 1.36 0 0 Z " fill="#8C7D75" transform="translate(777,313)"/>
<path d="M0 0 C1.66666667 0 3.33333333 0 5 0 C4.67 1.65 4.34 3.3 4 5 C2.68 4.67 1.36 4.34 0 4 C0 2.68 0 1.36 0 0 Z " fill="#8C7D75" transform="translate(777,256)"/>
<path d="M0 0 C0.33 0 0.66 0 1 0 C0.67 2.97 0.34 5.94 0 9 C-0.99 9 -1.98 9 -3 9 C-3 8.01 -3 7.02 -3 6 C-2.34 6 -1.68 6 -1 6 C-0.67 4.02 -0.34 2.04 0 0 Z " fill="#58444B" transform="translate(813,199)"/>
<path d="M0 0 C1.66666667 0 3.33333333 0 5 0 C4.67 1.65 4.34 3.3 4 5 C2.68 4.67 1.36 4.34 0 4 C0 2.68 0 1.36 0 0 Z " fill="#8C7D75" transform="translate(777,199)"/>
<path d="M0 0 C0.66 0 1.32 0 2 0 C2 2.64 2 5.28 2 8 C1.01 8 0.02 8 -1 8 C-0.67 5.36 -0.34 2.72 0 0 Z " fill="#DCD8F3" transform="translate(995,148)"/>
<path d="M0 0 C0.66 0 1.32 0 2 0 C2 2.64 2 5.28 2 8 C1.01 8 0.02 8 -1 8 C-0.67 5.36 -0.34 2.72 0 0 Z " fill="#DCD8F3" transform="translate(768,148)"/>
<path d="M0 0 C1.98 0 3.96 0 6 0 C4.6875 2 4.6875 2 3 4 C2.01 4 1.02 4 0 4 C0 2.68 0 1.36 0 0 Z " fill="#E7C89D" transform="translate(34,50)"/>
<path d="M0 0 C2.31 0 4.62 0 7 0 C7.33 0.66 7.66 1.32 8 2 C6.35 2.66 4.7 3.32 3 4 C2.01 2.68 1.02 1.36 0 0 Z " fill="#C9C4C6" transform="translate(20,50)"/>
<path d="M0 0 C0.99 0 1.98 0 3 0 C3 1.65 3 3.3 3 5 C1.68 4.67 0.36 4.34 -1 4 C-0.67 2.68 -0.34 1.36 0 0 Z " fill="#8173D4" transform="translate(187,35)"/>
<path d="M0 0 C1.32 0.33 2.64 0.66 4 1 C3.67 2.32 3.34 3.64 3 5 C2.01 5 1.02 5 0 5 C0 3.35 0 1.7 0 0 Z " fill="#7A6CD2" transform="translate(167,35)"/>
<path d="M0 0 C0.66 0.33 1.32 0.66 2 1 C1.67 1.66 1.34 2.32 1 3 C1 4.32 1 5.64 1 7 C0.01 6.67 -0.98 6.34 -2 6 C-2 3 -2 3 0 0 Z " fill="#7F6B63" transform="translate(1003,539)"/>
<path d="M0 0 C0.66 0 1.32 0 2 0 C3.09658936 3.28976808 2.79953138 4.71303767 2 8 C1.34 8 0.68 8 0 8 C0 5.36 0 2.72 0 0 Z " fill="#4B293B" transform="translate(747,485)"/>
<path d="M0 0 C-0.66 2.97 -1.32 5.94 -2 9 C-2.33 9 -2.66 9 -3 9 C-3.33 6.36 -3.66 3.72 -4 1 C-2 0 -2 0 0 0 Z " fill="#5C4C55" transform="translate(819,425)"/>
<path d="M0 0 C1.65 0.33 3.3 0.66 5 1 C4.67 2.32 4.34 3.64 4 5 C4 4.01 4 3.02 4 2 C3.01 2 2.02 2 1 2 C1 2.66 1 3.32 1 4 C0.34 4 -0.32 4 -1 4 C-0.67 2.68 -0.34 1.36 0 0 Z " fill="#25304E" transform="translate(785,425)"/>
<path d="M0 0 C0.66 0.33 1.32 0.66 2 1 C1.67 1.66 1.34 2.32 1 3 C1 4.32 1 5.64 1 7 C0.01 6.67 -0.98 6.34 -2 6 C-2 3 -2 3 0 0 Z " fill="#7F6B63" transform="translate(1136,368)"/>
<path d="M0 0 C1.65 0.33 3.3 0.66 5 1 C4.67 2.32 4.34 3.64 4 5 C4 4.01 4 3.02 4 2 C3.01 2 2.02 2 1 2 C1 2.66 1 3.32 1 4 C0.34 4 -0.32 4 -1 4 C-0.67 2.68 -0.34 1.36 0 0 Z " fill="#25304E" transform="translate(785,368)"/>
<path d="M0 0 C0.66 0 1.32 0 2 0 C2.125 2.375 2.125 2.375 2 5 C1.34 5.66 0.68 6.32 0 7 C-2.125 6.625 -2.125 6.625 -4 6 C-3.01 6 -2.02 6 -1 6 C-0.67 4.02 -0.34 2.04 0 0 Z " fill="#D9D5F2" transform="translate(750,150)"/>
<path d="M0 0 C0.33 0.66 0.66 1.32 1 2 C1.66 2.33 2.32 2.66 3 3 C3 4.65 3 6.3 3 8 C2.01 8 1.02 8 0 8 C-1.125 2.25 -1.125 2.25 0 0 Z " fill="#C4BEEB" transform="translate(144,57)"/>
<path d="M0 0 C0.66 0 1.32 0 2 0 C2.6875 2.8125 2.6875 2.8125 3 6 C2.01 6.99 1.02 7.98 0 9 C0 6.03 0 3.06 0 0 Z " fill="#CAC4ED" transform="translate(90,56)"/>
<path d="M0 0 C1.32 0 2.64 0 4 0 C3.67 1.65 3.34 3.3 3 5 C2.01 5 1.02 5 0 5 C0 3.35 0 1.7 0 0 Z " fill="#EBE9F8" transform="translate(196,41)"/>
<path d="M0 0 C0.99 0.99 1.98 1.98 3 3 C2.67 3.99 2.34 4.98 2 6 C0 5 -2 4 -4 3 C-2.68 2.01 -1.36 1.02 0 0 Z " fill="#C3A37B" transform="translate(30,27)"/>
</svg>